<svg xmlns="http://www.w3.org/2000/svg" viewBox="0 0 48 48"><defs><style>.cls-1{fill:#231815;}.bg{fill:#fff;}</style></defs><rect x="0" y="0" width="480" height="48" class="bg" /><path class="cls-1" d="M36.12,13.18a15.82,15.82,0,0,0-12-5.12c-6.58,0-11.73,3.67-11.73,9.15S16.58,25,21.65,26l4.15.9c3.15.68,5.3,1.59,5.3,4S29,35.09,24.8,35.09a11,11,0,0,1-9.22-4.71L11,33.64c2.15,3,6.76,6.3,13.52,6.3,7.76,0,12.46-3.81,12.46-9.51S32.79,23,27,21.65l-3.74-.82c-3.52-.77-5-1.63-5-3.89s2.1-4.12,5.71-4.12a10.3,10.3,0,0,1,8,3.71Z"/></svg>
