<?xml version="1.0" encoding="UTF-8"?>
<svg id="_レイヤー_2" data-name="レイヤー 2" xmlns="http://www.w3.org/2000/svg" viewBox="0 0 93.67 79.44">
  <defs>
    <style>
      .cls-1 {
        stroke-width: 0px;
      }
    </style>
  </defs>
  <g id="_デザイン" data-name="デザイン">
    <g>
      <g>
        <path class="cls-1" d="m1.17,59c.68-.69,1.54-1.04,2.59-1.04,1.4,0,2.43.46,3.08,1.39.36.52.55,1.05.58,1.57h-1.76c-.11-.4-.26-.71-.43-.92-.31-.37-.78-.55-1.39-.55s-1.12.26-1.49.77c-.36.52-.54,1.25-.54,2.19s.19,1.65.57,2.12c.38.47.87.71,1.46.71s1.06-.2,1.38-.61c.17-.22.32-.54.44-.98h1.75c-.15.92-.54,1.67-1.16,2.24-.62.57-1.42.86-2.38.86-1.2,0-2.14-.39-2.83-1.17-.69-.78-1.03-1.85-1.03-3.21,0-1.47.39-2.6,1.17-3.4"/>
        <path class="cls-1" d="m12.05,64.89c.26-.34.38-.82.38-1.44s-.13-1.1-.38-1.44c-.26-.34-.62-.5-1.1-.5s-.84.17-1.1.5c-.26.34-.39.82-.39,1.44s.13,1.1.39,1.44c.26.34.62.51,1.1.51s.84-.17,1.1-.51m1.3.9c-.53.65-1.33.98-2.4.98s-1.87-.32-2.39-.98c-.53-.65-.79-1.43-.79-2.34s.26-1.68.79-2.34c.53-.66,1.32-.99,2.39-.99s1.87.33,2.4.99c.53.66.79,1.44.79,2.34s-.26,1.69-.79,2.34"/>
        <path class="cls-1" d="m20,60.68c.41.34.61.9.61,1.68v4.19h-1.67v-3.79c0-.33-.04-.58-.13-.75-.16-.32-.46-.48-.91-.48-.55,0-.93.23-1.13.7-.1.25-.16.56-.16.95v3.37h-1.63v-6.22h1.58v.91c.21-.32.41-.55.59-.69.34-.25.76-.38,1.27-.38.64,0,1.17.17,1.58.5"/>
        <path class="cls-1" d="m21.13,61.54v-1.16h.87v-1.74h1.61v1.74h1.01v1.16h-1.01v3.29c0,.25.03.41.1.48.07.06.26.09.6.09h.16s.16-.01.16-.01v1.22l-.77.03c-.77.03-1.3-.11-1.58-.4-.18-.19-.28-.48-.28-.86v-3.84h-.87Z"/>
        <path class="cls-1" d="m26.81,61.85c-.23.24-.38.56-.43.96h2.81c-.03-.43-.17-.76-.43-.98-.26-.22-.58-.34-.97-.34-.42,0-.74.12-.97.35m2.44-1.41c.43.19.79.5,1.08.92.26.37.42.8.5,1.29.04.29.06.7.05,1.24h-4.54c.03.62.24,1.06.65,1.32.25.16.55.23.9.23.37,0,.67-.1.91-.29.13-.1.24-.25.33-.43h1.66c-.04.37-.24.75-.6,1.13-.56.61-1.34.91-2.34.91-.83,0-1.56-.26-2.2-.77-.63-.51-.95-1.34-.95-2.5,0-1.08.28-1.91.86-2.48.57-.57,1.32-.86,2.23-.86.54,0,1.03.1,1.47.29"/>
        <path class="cls-1" d="m39.21,60.34c.27.11.51.29.73.56.18.22.29.48.35.8.04.21.06.52.06.92v3.93h-1.68v-3.97c0-.24-.04-.43-.11-.58-.14-.29-.41-.44-.8-.44-.45,0-.76.19-.93.56-.09.2-.13.44-.13.71v3.71h-1.64v-3.71c0-.37-.04-.64-.11-.81-.14-.3-.41-.45-.81-.45-.47,0-.78.15-.94.45-.09.17-.13.43-.13.77v3.75h-1.65v-6.22h1.58v.91c.2-.32.39-.55.57-.69.32-.24.73-.37,1.23-.37.48,0,.86.11,1.15.32.24.19.42.44.54.75.21-.37.48-.63.8-.81.33-.17.71-.26,1.12-.26.27,0,.55.05.81.16"/>
        <path class="cls-1" d="m45.38,62.16c-.22-.37-.58-.55-1.08-.55-.6,0-1.01.28-1.23.84-.12.3-.17.68-.17,1.13,0,.72.19,1.23.58,1.53.23.17.5.26.82.26.46,0,.81-.18,1.05-.53.24-.35.36-.82.36-1.4,0-.48-.11-.91-.33-1.28m1.25-1.17c.51.54.76,1.33.76,2.37,0,1.1-.25,1.93-.74,2.51-.5.58-1.14.86-1.92.86-.5,0-.91-.12-1.24-.37-.18-.14-.36-.34-.53-.6v3.25h-1.61v-8.69h1.56v.92c.18-.27.36-.48.56-.64.36-.28.8-.42,1.3-.42.73,0,1.35.27,1.86.81"/>
        <path class="cls-1" d="m52.04,64.89c.26-.34.38-.82.38-1.44s-.13-1.1-.38-1.44c-.26-.34-.62-.5-1.1-.5s-.84.17-1.1.5c-.26.34-.39.82-.39,1.44s.13,1.1.39,1.44c.26.34.62.51,1.1.51s.84-.17,1.1-.51m1.3.9c-.53.65-1.33.98-2.4.98s-1.87-.32-2.4-.98c-.52-.65-.79-1.43-.79-2.34s.26-1.68.79-2.34c.53-.66,1.32-.99,2.4-.99s1.87.33,2.4.99c.53.66.79,1.44.79,2.34s-.26,1.69-.79,2.34"/>
        <path class="cls-1" d="m58.32,60.17h.14v1.68c-.1-.01-.19-.02-.27-.02h-.2c-.66,0-1.09.21-1.32.63-.13.24-.19.61-.19,1.11v2.98h-1.64v-6.23h1.55v1.09c.25-.42.47-.7.66-.85.31-.26.7-.38,1.19-.38h.08Z"/>
        <path class="cls-1" d="m62.47,63.52c-.1.06-.21.12-.32.16-.11.04-.25.08-.44.11l-.37.07c-.35.06-.6.14-.75.22-.26.15-.39.38-.39.69,0,.28.08.48.24.6.16.12.35.19.57.19.36,0,.68-.1.98-.31.3-.21.46-.58.47-1.13v-.6Zm-1-.76c.3-.04.52-.09.65-.14.24-.1.35-.25.35-.46,0-.26-.09-.43-.27-.53-.18-.1-.44-.15-.79-.15-.39,0-.67.09-.83.29-.12.14-.19.33-.23.57h-1.57c.03-.55.19-.99.46-1.34.43-.55,1.18-.82,2.23-.82.69,0,1.29.13,1.83.41.53.27.8.78.8,1.53v2.86c0,.2,0,.44.01.72.01.21.04.36.1.43.05.08.13.14.24.19v.24h-1.77c-.05-.12-.08-.24-.1-.35-.02-.11-.04-.24-.05-.38-.23.24-.49.45-.78.62-.35.2-.75.3-1.2.3-.57,0-1.04-.16-1.41-.48-.37-.32-.56-.78-.56-1.37,0-.77.3-1.32.89-1.66.33-.19.81-.32,1.44-.4l.56-.07Z"/>
        <path class="cls-1" d="m68.45,60.17h.14v1.68c-.1-.01-.19-.02-.27-.02h-.2c-.66,0-1.1.21-1.32.63-.13.24-.19.61-.19,1.11v2.98h-1.64v-6.23h1.55v1.09c.25-.42.47-.7.66-.85.31-.26.7-.38,1.19-.38h.08Z"/>
        <path class="cls-1" d="m69.72,67.75h.2c.16.02.31.01.46,0,.14-.02.27-.06.37-.13.09-.07.18-.2.27-.41.08-.21.12-.33.11-.38l-2.29-6.51h1.81l1.36,4.6,1.29-4.6h1.73l-2.14,6.13c-.41,1.18-.74,1.91-.98,2.2-.24.28-.72.43-1.44.43-.15,0-.26,0-.35,0-.09,0-.22,0-.39-.02v-1.3Z"/>
      </g>
      <path class="cls-1" d="m80.5,63.37h2.16l-1.07-3.32-1.09,3.32Zm.12-5.24h1.99l2.98,8.43h-1.91l-.56-1.73h-3.1l-.57,1.73h-1.84l3.01-8.43Z"/>
      <g>
        <path class="cls-1" d="m89.56,60.17h.14v1.68c-.1-.01-.19-.02-.27-.02h-.19c-.66,0-1.1.21-1.32.63-.12.24-.19.61-.19,1.11v2.98h-1.64v-6.23h1.55v1.09c.25-.42.47-.7.66-.85.31-.26.7-.38,1.19-.38h.08Z"/>
        <path class="cls-1" d="m90.18,61.54v-1.16h.87v-1.74h1.61v1.74h1.01v1.16h-1.01v3.29c0,.25.03.41.1.48.07.06.26.09.6.09h.16s.16-.01.16-.01v1.22l-.77.03c-.77.03-1.3-.11-1.58-.4-.18-.19-.28-.48-.28-.86v-3.84h-.87Z"/>
      </g>
      <polygon class="cls-1" points="75.88 16.89 67.27 16.89 59.28 29.59 49.87 16.45 60.31 0 52.07 0 45.82 11.11 39.74 0 31.22 0 41.66 16.73 32.41 29.43 24.6 16.89 16.09 16.89 27.78 35.8 16.71 50.99 24.99 50.99 31.59 41.96 37.17 50.99 45.82 50.99 36.24 35.59 45.82 22.48 55.31 35.91 45.82 50.99 54.57 50.99 59.92 42.43 66.07 51.15 74.73 51.15 63.91 36.04 75.88 16.89"/>
      <polygon class="cls-1" points="17.03 70.81 23.04 70.81 23.04 72.29 18.78 72.29 18.78 74.23 22.51 74.23 22.51 75.69 18.78 75.69 18.78 79.23 17.03 79.23 17.03 70.81"/>
      <g>
        <path class="cls-1" d="m27.32,77.56c.26-.34.38-.82.38-1.44s-.13-1.11-.38-1.44c-.26-.34-.62-.51-1.1-.51s-.84.17-1.1.51c-.26.34-.39.82-.39,1.44s.13,1.1.39,1.44c.26.34.62.51,1.1.51s.84-.17,1.1-.51m1.3.9c-.53.65-1.32.98-2.4.98s-1.87-.33-2.39-.98c-.53-.65-.79-1.43-.79-2.34s.26-1.68.79-2.34c.53-.66,1.32-.99,2.39-.99s1.87.33,2.4.99c.53.66.79,1.44.79,2.34s-.26,1.7-.79,2.34"/>
        <path class="cls-1" d="m31.78,72.99v3.76c0,.35.04.62.12.8.15.31.44.47.87.47.55,0,.93-.23,1.14-.67.11-.25.16-.57.16-.97v-3.39h1.65v6.23h-1.58v-.88s-.05.08-.11.17c-.06.09-.13.18-.22.25-.25.23-.5.38-.74.47-.24.08-.52.13-.83.13-.92,0-1.54-.33-1.86-1-.18-.37-.27-.91-.27-1.62v-3.76h1.67Z"/>
        <path class="cls-1" d="m41.68,73.35c.41.34.61.9.61,1.68v4.2h-1.67v-3.79c0-.33-.04-.58-.13-.75-.16-.32-.46-.48-.91-.48-.55,0-.93.23-1.13.7-.1.25-.16.57-.16.95v3.37h-1.63v-6.22h1.58v.91c.21-.32.41-.55.59-.69.33-.25.76-.38,1.27-.38.64,0,1.17.17,1.57.5"/>
        <path class="cls-1" d="m47.16,77.53c.24-.34.36-.79.36-1.33,0-.76-.19-1.31-.58-1.64-.23-.2-.51-.3-.82-.3-.48,0-.83.18-1.05.54-.22.36-.33.81-.33,1.34,0,.58.11,1.04.34,1.38.23.35.57.52,1.03.52s.81-.17,1.05-.51m-.4-4.44c.29.17.53.4.71.69v-2.97h1.65v8.42h-1.58v-.86c-.23.37-.5.64-.79.81-.3.17-.67.25-1.11.25-.73,0-1.34-.29-1.84-.88-.5-.59-.75-1.35-.75-2.27,0-1.06.24-1.9.73-2.51.49-.61,1.15-.92,1.96-.92.38,0,.71.08,1.01.25"/>
        <path class="cls-1" d="m53.75,76.19c-.1.06-.21.12-.32.16-.11.04-.25.08-.44.11l-.37.07c-.35.06-.6.14-.75.22-.26.15-.39.38-.39.69,0,.28.08.48.24.6.16.12.35.19.57.19.36,0,.68-.1.98-.31.3-.21.46-.58.47-1.13v-.61Zm-1-.76c.3-.04.52-.09.65-.14.24-.1.35-.25.35-.46,0-.26-.09-.43-.27-.53-.18-.1-.44-.15-.79-.15-.39,0-.67.1-.83.29-.12.14-.19.33-.23.57h-1.57c.03-.55.19-.99.46-1.34.43-.55,1.18-.82,2.23-.82.69,0,1.29.14,1.83.41.53.27.8.78.8,1.53v2.86c0,.2,0,.44.01.72.01.21.04.36.1.43.05.08.13.14.24.19v.24h-1.77c-.05-.12-.08-.24-.1-.35-.02-.11-.04-.24-.05-.38-.23.24-.49.45-.78.62-.35.2-.75.3-1.2.3-.57,0-1.04-.16-1.41-.48-.37-.32-.56-.78-.56-1.37,0-.77.3-1.32.89-1.66.33-.19.81-.32,1.44-.4l.56-.07Z"/>
        <path class="cls-1" d="m55.78,74.21v-1.16h.87v-1.74h1.61v1.74h1.01v1.16h-1.01v3.29c0,.25.03.41.1.48.06.06.26.09.59.09h.16s.16-.01.16-.01v1.22l-.77.03c-.77.03-1.3-.11-1.58-.4-.18-.19-.28-.47-.28-.86v-3.84h-.87Z"/>
      </g>
      <path class="cls-1" d="m59.88,72.99h1.65v6.23h-1.65v-6.23Zm1.65-.74h-1.65v-1.5h1.65v1.5Z"/>
      <path class="cls-1" d="m66.66,77.56c.26-.34.38-.82.38-1.44s-.13-1.11-.38-1.44c-.26-.34-.62-.51-1.1-.51s-.84.17-1.1.51c-.26.34-.39.82-.39,1.44s.13,1.1.39,1.44c.26.34.62.51,1.1.51s.84-.17,1.1-.51m1.3.9c-.53.65-1.32.98-2.4.98s-1.87-.33-2.4-.98c-.53-.65-.79-1.43-.79-2.34s.26-1.68.79-2.34c.53-.66,1.32-.99,2.4-.99s1.87.33,2.4.99c.53.66.79,1.44.79,2.34s-.26,1.7-.79,2.34"/>
      <path class="cls-1" d="m74.41,73.35c.41.34.61.9.61,1.68v4.2h-1.67v-3.79c0-.33-.04-.58-.13-.75-.16-.32-.46-.48-.91-.48-.55,0-.93.23-1.13.7-.1.25-.16.57-.16.95v3.37h-1.63v-6.22h1.58v.91c.21-.32.41-.55.59-.69.33-.25.76-.38,1.27-.38.64,0,1.17.17,1.57.5"/>
    </g>
  </g>
</svg>