<svg xmlns="http://www.w3.org/2000/svg" viewBox="0 0 546.2 149.8"><defs/><g><path class="cls-1" d="m291.7 137.3-.3-1.5c0-1.5.9-2.8 2.6-2.8 1.5 0 2.5 1 2.5 2.6 0 2-1.3 3.2-3.2 4.9-2.3 2-3.5 3-4.7 3.8v2h11V144h-6.9l.7-.5c2.7-2 5.9-4.6 5.9-8.1 0-2.9-2-4.8-5.1-4.8s-5.4 2-5.4 4.7c0 .7.1 1.2.3 1.6l2.6.4Zm-16 4.5c.2 3 1.8 4.9 5.5 4.9s5.5-2 5.5-4.7c0-2.4-1.5-3.5-2.8-4a3.9 3.9 0 0 0 2.4-3.5c0-2.2-1.8-4-5-4-3.4 0-5.2 2.1-5.2 4.5l2.4.4c0-1 .6-2.6 2.6-2.6 1.7 0 2.5 1 2.5 2.2a2 2 0 0 1-1.6 2l-1.5.1h-1.2v2.3h1a7 7 0 0 1 1.9.1c1.1.4 1.7 1.1 1.7 2.3 0 1.3-.8 2.6-2.7 2.6-1.8 0-2.7-1.1-2.9-3l-2.7.4Zm-4.6-3c0 2.6-.6 5.4-3 5.4s-3-2.8-3-5.5.6-5.6 3-5.6 3 3 3 5.6m2.8 0c0-4.1-1.6-8.1-5.8-8.1s-5.9 4.4-5.9 8.1c0 4.4 1.6 8 6 8s5.7-4 5.7-8m-16 0c0 2.7-.6 5.5-3 5.5s-3-2.8-3-5.5.6-5.6 3-5.6 3 3 3 5.6m2.8 0c0-4.1-1.6-8.1-5.8-8.1s-5.9 4.4-5.9 8.1c0 4.4 1.6 8 5.9 8s5.8-4 5.8-8m-13.8-1.2h-6.4v2.4h6.4v-2.4Zm-11.5 3.7c0 1.9-1 3.1-2.7 3.1-2.2 0-2.9-2.5-2.9-4.4.3-.5 1.4-1.5 3-1.5s2.6 1.1 2.6 2.8m2.6-6.3c-.4-2.3-1.8-4.3-5-4.3-4 0-6 3-6 8.2s2.2 7.9 5.7 7.9 5.6-2.3 5.6-5.7-2.4-5-5-5c-1.8 0-3 .8-3.5 1.4 0-2.3 1-4.5 3-4.5 1.8 0 2.4 1.5 2.7 2.5l2.5-.5Zm-15.6 3.9c0 2.6-.6 5.4-3 5.4s-3-2.8-3-5.4.6-5.7 3-5.7 3 3 3 5.7m2.8 0c0-4.2-1.5-8.2-5.8-8.2s-5.9 4.4-5.9 8.1c0 4.4 1.6 8 6 8s5.7-4 5.7-8m-14-7.8H209c0 1.2-.4 2-1.1 2.6-.6.5-1.4.7-2.6.7h-.9v2h4.2v10.2h2.6v-15.5Zm-26.3 7.7c0-3.3 1.6-5.5 4.3-5.5s4.3 2.2 4.3 5.5-1.6 5.6-4.3 5.6-4.3-2.2-4.3-5.6m-3 0c0 4.8 2.7 8 7.3 8s7.2-3.2 7.2-8-2.8-8-7.2-8-7.2 3.3-7.2 8m-5.4 1.5 5.8-9.2h-3l-4 6.6-4-6.6h-3l5.5 9.2v6.3h2.7V140Zm-15.1-2.8 6.2-6.4h-3.6l-6.7 7v-7h-2.7v15.5h2.7v-5l2-2.1 5 7.1h3.4l-6.3-9.1Zm-20.6 1.3c0-3.3 1.6-5.5 4.3-5.5s4.3 2.2 4.3 5.5-1.6 5.6-4.3 5.6-4.3-2.2-4.3-5.6m-3 0c0 4.8 2.7 8 7.3 8s7.2-3.2 7.2-8-2.8-8-7.2-8-7.2 3.3-7.2 8m-12.3-5.3h4.5v13.1h2.7v-13h4.4v-2.5h-11.6v2.4Zm-8.5 10.1v3h1.3v.3c0 1.2-.5 1.5-1.3 1.6v1.5c2 0 2.7-1.1 2.8-2.8V143.4h-2.8Zm-7.7.7c-1.4 0-2.4-.4-2.9-1.6-.2-.5-.3-1-.3-2.6v-9h-2.7v9c0 2.3.2 3.4.8 4.4 1 1.6 2.9 2.4 5.1 2.4s4.1-.8 5.1-2.4c.6-1 .8-2 .8-4.3v-9.1h-2.6v9c0 1.6-.1 2.1-.4 2.6-.4 1.2-1.5 1.6-2.9 1.6m-14-6.8 6.3-6.4h-3.6l-6.7 7v-7h-2.7v15.5h2.7v-5l2-2.1 5 7.1h3.4l-6.3-9.1Zm-9.4.2h-6.4v2.4h6.4v-2.4ZM66 138.6c0-3.3 1.6-5.5 4.3-5.5s4.2 2.2 4.2 5.5-1.5 5.6-4.2 5.6-4.3-2.2-4.3-5.6m-3 0c0 4.8 2.6 8 7.3 8s7.2-3.2 7.2-8-2.8-8-7.2-8-7.3 3.3-7.3 8m-11.8-5.3h4.5v13.1h2.6v-13h4.5v-2.5H51.2v2.4Zm-4.1 7.1h-4l1.4-4.7.6-2 .6 2 1.4 4.7Zm-4.8 2.5H48l1.2 3.5h2.8l-5.2-15.5h-3l-5.3 15.5h2.8l1.1-3.5Zm-15.4-12h-2.5v15.5H27v-10.9l1 1.6 6 9.3h2.5v-15.5h-2.7v10.8l-1.1-2-5.8-8.8Zm-5.3 0H19v15.5h2.6v-15.5ZM10 146.4l2.7-9.5.8-3-.2 6v6.5h2.6v-15.5h-4l-2.3 8.5-.9 3.3-.9-3.2-2.4-8.6h-4v15.5h2.6v-6.6l-.1-5.5.7 2.7 2.7 9.4h2.7ZM374 116.2v3h1.2v.2c0 1.3-.5 1.6-1.3 1.7v1.4c2.1 0 2.7-1 2.9-2.7V116.2h-2.9Zm-2.7-12.5h-2.7v15.5h2.7v-15.6Zm-19.3 7.7c0 4.7 2.6 8 7 8a6 6 0 0 0 4-1.4v1.2h2.6v-8.5h-7v2.5h4.5c-.1 2.3-1.2 3.8-3.8 3.8-2.7 0-4.3-2.2-4.3-5.6s1.7-5.6 4.3-5.6c1.8 0 3 1 3.8 2.6l2.3-1.5a6.7 6.7 0 0 0-6-3.5c-4.5 0-7.4 3.3-7.4 8m-11.5-7.8H338v15.6h2.7v-11l.9 1.6 6 9.4h2.5v-15.6h-2.7v10.8l-1.1-1.9-5.8-8.9Zm-16.3 7.8c0-3.4 1.6-5.6 4.2-5.6s4.3 2.2 4.3 5.6-1.6 5.6-4.3 5.6-4.2-2.2-4.2-5.6m-3 0c0 4.7 2.6 8 7.2 8s7.3-3.3 7.3-8-2.8-8-7.3-8-7.2 3.3-7.2 8m-12.6 7.8h2.7v-6h2.4c1.9 0 3.7-.2 4.9-1.2 1-.9 1.5-2.2 1.5-3.6s-.6-2.8-1.5-3.6c-1.2-1-3-1.1-4.9-1.1h-5v15.5Zm2.7-13.1h2.8c1 0 1.7 0 2.1.3.7.3 1.1 1 1.1 2s-.4 1.6-1 2a5 5 0 0 1-2.2.3h-2.8V106Zm-16 13h2.6v-6h2.4c2 0 3.7 0 5-1.1.9-.9 1.4-2.2 1.4-3.6s-.5-2.8-1.5-3.6c-1.2-1-3-1.1-4.9-1.1h-5v15.5Zm2.6-13h2.8c1 0 1.7 0 2.1.3.7.3 1.1 1 1.1 2s-.4 1.6-1 2a5 5 0 0 1-2.2.3H298V106Zm-16.5 5.3c0-3.4 1.6-5.6 4.3-5.6s4.3 2.2 4.3 5.6-1.6 5.6-4.3 5.6-4.3-2.2-4.3-5.6m-3 0c0 4.7 2.7 8 7.3 8s7.2-3.3 7.2-8-2.8-8-7.2-8-7.2 3.3-7.2 8m-10.6-5.3h3c1 0 1.6 0 2 .3.7.3 1.1 1 1.1 1.9s-.4 1.6-1 2c-.5.1-1 .2-2.2.2H268v-4.4Zm2.8 6.9 3.5 6.2h3.2l-3.8-6.5c.4-.2.9-.3 1.2-.6 1.2-.8 2-2 2-3.8 0-1.9-.8-3.1-2.1-4a7.4 7.4 0 0 0-3.9-.6h-5.5v15.5h2.6V113h2.8Zm-21.1-4.2c0-1.9 1-3.1 2.7-3.1 2.2 0 2.9 2.6 2.8 4.4-.3.5-1.3 1.5-2.8 1.5-1.7 0-2.7-1-2.7-2.8m-2.7 6.4c.5 2.3 2 4.2 5.2 4.2 3.9 0 6-3 6-8.2s-2.3-7.8-5.8-7.8-5.6 2.2-5.6 5.6 2.4 5 5 5c1.8 0 3-.8 3.5-1.3 0 2.3-1 4.4-3 4.4-1.8 0-2.5-1.5-2.7-2.5l-2.6.6Zm-2.5-5h-6.3v2.5h6.3v-2.5ZM233 114c0 1.9-1 3-2.6 3-2.2 0-3-2.5-3-4.3.4-.5 1.5-1.5 3-1.5 1.7 0 2.6 1 2.6 2.8m2.7-6.4c-.5-2.3-1.9-4.2-5.1-4.2-4 0-6 3-6 8.2s2.2 7.8 5.8 7.8 5.5-2.2 5.5-5.6-2.3-5-5-5c-1.8 0-3 .8-3.5 1.4.1-2.4 1-4.5 3-4.5 1.8 0 2.5 1.5 2.7 2.5l2.6-.6Zm-13.4 2.6h-6.4v2.5h6.4v-2.5Zm-11.5 3.8c0 1.8-1 3-2.7 3-2.2 0-2.9-2.5-2.9-4.3.4-.5 1.4-1.5 3-1.5s2.6 1 2.6 2.8m2.7-6.4c-.5-2.3-2-4.2-5.2-4.2-3.9 0-6 3-6 8.2s2.3 7.8 5.8 7.8 5.6-2.2 5.6-5.6-2.4-5-5-5c-1.8 0-3 .8-3.5 1.3 0-2.3 1-4.4 3-4.4 1.8 0 2.4 1.5 2.7 2.5l2.6-.6Zm-18.8 8.6v3h1.3v.2c0 1.3-.5 1.6-1.3 1.7v1.4c2.1 0 2.7-1 2.9-2.7V116.2h-2.9Zm-4.6 3h2.9v-3H190v3Zm-15.7-7.8c0 4.7 2.6 8 7 8a6 6 0 0 0 4-1.4v1.2h2.6v-8.5h-7v2.5h4.5c-.1 2.3-1.2 3.8-3.8 3.8-2.7 0-4.3-2.2-4.3-5.6s1.7-5.6 4.3-5.6c1.8 0 3 1 3.8 2.6l2.3-1.5a6.7 6.7 0 0 0-6-3.5c-4.5 0-7.4 3.3-7.4 8m-10 7.8c2.8 0 4.6 0 6.2-1.7a8.5 8.5 0 0 0 2.2-6.1c0-3-1.1-5.4-2.8-6.7-1.6-1-3.1-1-5.6-1h-4.2v15.5h4.2Zm-1.5-13h1.5c2 0 3.1 0 4 .9 1 .9 1.6 2.4 1.6 4.3s-.7 3.6-1.4 4.3c-1 1-2.2 1-4 1h-1.7v-10.5Zm-14.1-2.6v15.6h9.3v-2.5h-6.6v-13h-2.7Zm-5.8 4.4a2 2 0 0 1-.9 1.7c-.6.3-1.5.3-2.1.3h-3.1v-4h3c1.2 0 1.6.1 2 .3.6.3 1 1 1 1.7m-6 4.2h3.2c1.2 0 1.9 0 2.4.4s1 1 1 1.9-.5 1.5-1 1.9c-.5.3-1.1.3-2.4.3h-3.2v-4.5Zm3.6 7c2 0 2.8-.3 3.5-.7 1.3-.7 2.1-2 2.1-3.8a4 4 0 0 0-2.5-3.8c1.1-.5 2-1.6 2-3.2s-.8-2.9-2-3.5c-.7-.4-1.5-.6-3.4-.6h-6v15.6h6.3Zm-14-13.1v-2.5h-10.6v15.6H127v-2.5h-8.5v-4.3h7.2v-2.5h-7.2v-3.8h8Zm-21 13c2.8 0 4.5 0 6.2-1.6a8.5 8.5 0 0 0 2.2-6.1c0-3-1.2-5.4-2.9-6.7-1.5-1-3-1-5.5-1H101v15.5h4.2Zm-1.6-13h1.5c2 0 3.2.2 4 1 1 .9 1.6 2.4 1.6 4.3s-.6 3.6-1.3 4.3c-1 1-2.3 1-4 1h-1.8v-10.5Zm-5.4-2.5h-2.7v15.6h2.7v-15.6Zm-11.3 15.6 2.6-9.5.8-3-.1 5.9v6.6H93v-15.6h-4l-2.4 8.6-.8 3.3-.9-3.3-2.4-8.6h-4v15.6H81v-6.6L81 107l.7 2.7 2.7 9.5H87Zm-15-6h-4l1.5-4.8.5-1.9.6 2 1.4 4.7Zm-4.7 2.4h5.5l1.2 3.6H77l-5.3-15.6h-3l-5.3 15.6h2.8l1.2-3.6Zm-15-9.5h2.9c1 0 1.6 0 2.1.3.7.3 1 1 1 1.9s-.3 1.6-1 2c-.5.1-1 .2-2.1.2h-3v-4.4ZM55 113l3.6 6.2h3.2l-3.8-6.5 1.2-.6c1.2-.8 2-2 2-3.8 0-1.9-.9-3.1-2.2-4a7.5 7.5 0 0 0-3.8-.7h-5.6v15.6h2.7V113H55Zm-8.1-9.4h-2.7v15.6H47v-15.6Zm-16.5 15.6h2.7v-6h2.4c1.9 0 3.6-.2 4.9-1.2 1-.9 1.5-2.2 1.5-3.7s-.6-2.7-1.5-3.5c-1.3-1-3-1.2-5-1.2h-5v15.6Zm2.7-13.1H36c1 0 1.6 0 2 .3.8.3 1.2 1 1.2 2s-.4 1.6-1.1 2a5 5 0 0 1-2.1.3h-2.8V106Zm-9.3 0v-2.5h-9.8v15.6h2.7v-6.6h6.8V110h-6.8v-4h7.1Zm-14.3 7.4v-9.9H7L.1 113.7v2h7v3.5h2.6v-3.4H12v-2.3H9.7Zm-6.7 0 2.2-3.2c1-1.5 1.7-2.7 2-3.4h.1l-.1 4.3v2.3H3ZM485.5 70.7h-3.6V93h3.8V77.3l1.3 2.2 8.6 13.4h3.6V70.7h-3.8v15.4l-1.6-2.7-8.3-12.7ZM462 81.8c0-4.8 2.3-8 6.2-8s6 3.2 6 8-2.2 8-6 8-6.2-3.2-6.2-8m-4.2 0c0 6.8 3.8 11.5 10.3 11.5s10.4-4.7 10.4-11.5-4-11.5-10.4-11.5S458 75 458 81.8m-3.3-11h-3.8v22h3.8v-22Zm-23 3.4h6.4V93h3.8V74.2h6.4v-3.5h-16.6v3.5Zm-5.3 10.2h-5.7l2-6.8c.4-1 .7-2 .8-2.8l.9 2.8 2 6.8Zm-6.8 3.5h8l1.6 5h4.1l-7.5-22.2h-4.3L413.8 93h4l1.7-5Zm-17.7 5c4 0 6.6 0 8.9-2.3 2-2 3.2-5.1 3.2-8.9 0-4.3-1.7-7.6-4.1-9.4-2.2-1.6-4.4-1.6-8-1.6h-6V93h6Zm-2.2-18.6h2.2c2.8 0 4.4.2 5.7 1.3 1.5 1.3 2.3 3.6 2.3 6.3s-1 5-2 6.1c-1.3 1.3-3.2 1.3-5.6 1.3h-2.6v-15Zm-20.9-3.6h-3.6V93h3.9v-7.4l-.1-8.2 1.4 2.2 8.6 13.4h3.5V70.7h-3.8v15.4c-.2-.5-1-2-1.6-2.7l-8.3-12.7Zm-15.1 19c-2.1 0-3.5-.7-4.2-2.3-.4-.8-.5-1.6-.5-3.8V70.7h-3.8v13c0 3.2.3 4.7 1.1 6.1 1.5 2.4 4.1 3.5 7.3 3.5s6-1 7.4-3.5c.8-1.4 1.1-2.9 1.1-6.1v-13h-3.8v13c0 2.1-.1 3-.5 3.7-.7 1.6-2.1 2.3-4.2 2.3m-27.4-7.9c0-4.8 2.3-8 6.1-8s6.1 3.2 6.1 8-2.2 8-6 8-6.2-3.2-6.2-8m-4.2 0c0 6.7 3.7 11.5 10.3 11.5s10.3-4.8 10.3-11.5-4-11.5-10.3-11.5-10.3 4.7-10.3 11.5m-2-7.6v-3.5h-14V93h3.8v-9.4h9.8V80h-9.8v-5.8H330Zm-39.4 0h6.4v18.7h3.9V74.2h6.3v-3.5h-16.6v3.5Zm-13.6 0h4.1c1.6 0 2.4.1 3 .4 1 .4 1.6 1.5 1.6 2.7s-.6 2.3-1.5 2.8c-.7.3-1.5.4-3.1.4h-4.1v-6.3Zm4 9.8 5 8.9h4.5l-5.4-9.3c.5-.2 1.2-.4 1.7-.8 1.8-1.2 2.9-3 2.9-5.4 0-2.7-1.2-4.5-3.1-5.7-1.7-1-3.7-1-5.5-1h-8V93h3.8V84h4Zm-17 .4h-5.7l2-6.8.9-2.8.8 2.8 2 6.8Zm-6.8 3.5h8l1.6 5h4.1l-7.4-22.2H259L251.4 93h4l1.7-5Zm-18.7-4 8.3-13.2h-4.4l-5.7 9.5-5.5-9.5h-4.5l8 13.1v9h3.8v-9Zm-24.2-9.7h4.1c1.6 0 2.4.1 3.1.4 1 .4 1.6 1.5 1.6 2.7s-.6 2.3-1.6 2.8c-.6.3-1.5.4-3 .4h-4.2v-6.3Zm4 9.8 5 8.9h4.6l-5.5-9.3 1.7-.7c1.8-1.3 3-3 3-5.5 0-2.7-1.3-4.5-3.2-5.7-1.6-1-3.6-1-5.5-1h-8V93h3.9V84h4Zm-17 .4h-5.6l2-6.8c.4-1 .6-2 .8-2.8l.9 2.8 2 6.8Zm-6.7 3.5h8l1.6 5h4.1l-7.5-22.2h-4.3L188.8 93h4l1.7-5Zm-20.9-13.7h4.2c1.5 0 2.4.1 3 .4 1 .4 1.6 1.5 1.6 2.7s-.6 2.3-1.6 2.8c-.6.3-1.5.4-3 .4h-4.2v-6.3Zm4 9.8 5 9h4.6l-5.4-9.4 1.7-.7c1.7-1.2 2.8-3 2.8-5.5 0-2.7-1.1-4.5-3-5.6-1.7-1-3.7-1-5.6-1h-8v22.1h4V84h3.8Zm-27-2.2c0-4.8 2.3-8 6.1-8s6.1 3.2 6.1 8-2.2 8-6 8-6.2-3.2-6.2-8m-4.2 0c0 6.8 3.7 11.5 10.3 11.5S167 88.6 167 81.8s-4-11.5-10.3-11.5-10.3 4.7-10.3 11.5M127.8 93h3.9v-8.6h3.4c2.7 0 5.2-.2 7-1.7 1.3-1.2 2.1-3 2.1-5.2s-.8-3.8-2.1-5c-1.8-1.5-4.3-1.7-7-1.7h-7.3V93Zm3.9-18.7h4c1.5 0 2.3.1 3 .4 1 .5 1.6 1.6 1.6 2.8s-.7 2.4-1.6 3c-.7.2-1.5.3-3 .3h-4v-6.5Zm-16.2 18.7 3.8-13.5c.5-2 1-3.4 1.1-4.4l-.2 8.5V93h3.8V70.7H118L115 83l-1.3 4.6-1.2-4.6-3.5-12.3h-5.7V93h3.7v-9.4l-.1-8 1 4 3.8 13.4h3.9ZM99.3 74.2v-3.5H84V93h16v-3.5H88v-6.2h10.3v-3.5H88v-5.5h11.4Zm-34.5 0h6.4V93h3.9V74.2h6.3v-3.5H64.8v3.5Zm-16.3-3.5H45V93h3.8V77.3l1.4 2.3 8.5 13.3h3.6V70.7h-3.8v15.4c-.2-.5-1-2-1.6-2.7l-8.3-12.7ZM25.7 81.8c0-4.8 2.4-8 6.2-8s6 3.2 6 8-2.2 8-6 8-6.2-3.2-6.2-8m-4.2 0c0 6.8 3.8 11.5 10.4 11.5s10.3-4.7 10.3-11.5-4-11.5-10.3-11.5S21.5 75 21.5 81.8m-5 4.4a5.6 5.6 0 0 1-5.2 3.5c-4 0-6.2-3-6.2-7.9s2.3-8 6.2-8c2.5 0 4.2 1.4 5.3 3.7l3.4-2.1c-1.1-2-3.7-5-8.7-5C4.9 70.3.9 75 .9 81.7s3.7 11.5 10.4 11.5c5.3 0 7.9-3.5 8.9-5.5l-3.7-1.6ZM415.3 41.8l5.8-9h-3l-4 6.5-4-6.5h-3l5.5 9V48h2.7v-6.2Zm-11.8.4h-4l1.5-4.7.6-2 .5 2 1.4 4.6Zm-4.7 2.4h5.5l1.2 3.4h2.9L403 32.8h-3L394.8 48h2.8l1.2-3.4ZM385.6 48c2.8 0 4.6 0 6.2-1.6a8.3 8.3 0 0 0 2.3-6c0-3-1.2-5.4-2.9-6.6-1.5-1-3-1-5.5-1h-4.3V48h4.2ZM384 35.2h1.5c2 0 3.1.2 4 1 1 .8 1.6 2.4 1.6 4.2s-.7 3.5-1.4 4.2c-1 1-2.2 1-4 1h-1.7V35.2Zm-14.6 0h3c1 0 1.6 0 2 .2.7.3 1.2 1 1.2 1.9s-.4 1.6-1.1 1.9c-.5.2-1 .3-2.2.3h-2.9V35Zm2.8 6.7 3.5 6.1h3.3l-3.9-6.4 1.2-.5c1.3-.8 2-2 2-3.8 0-1.8-.8-3-2.1-3.9a7.6 7.6 0 0 0-3.9-.7H367V48h2.6v-6.1h2.8Zm-14.7 3.9c-1.5 0-2.5-.5-3-1.6-.2-.5-.3-1-.3-2.6v-8.8h-2.7v8.9c0 2.2.3 3.2.8 4.2 1 1.7 3 2.4 5.2 2.4s4-.7 5.1-2.4c.6-1 .8-2 .8-4.2v-9h-2.7v9c0 1.4 0 2-.3 2.5-.5 1.1-1.5 1.6-3 1.6M338 35.2h4.4V48h2.7V35.2h4.4v-2.4H338v2.4Zm-4.1 7h-4l1.4-4.7.6-2 .5 2 1.4 4.6Zm-4.8 2.4h5.5l1.2 3.4h2.9l-5.3-15.2h-3L325.1 48h2.8l1.2-3.4Zm-5-9.6c-1-1-2.8-2.5-6-2.5s-5.8 1.8-5.8 4.5 2.1 3.8 4.6 4.4l2 .4c1.6.4 2.7.8 2.7 2s-1 2-3.1 2a5.4 5.4 0 0 1-4.6-2.3l-2.2 1.7a8 8 0 0 0 6.6 3c3.8 0 6.1-1.8 6.1-4.6s-2-3.7-4.9-4.4l-1.8-.4c-1.7-.4-2.5-.8-2.5-2s1-2 2.8-2 3.1.8 4 1.9l2-1.7Zm-26.9 13c2.9 0 4.6 0 6.3-1.6a8.3 8.3 0 0 0 2.2-6c0-3-1.2-5.3-2.9-6.6-1.5-1-3-1-5.5-1H293V48h4.2Zm-1.5-12.7h1.5c2 0 3.1 0 4 .9 1 .9 1.6 2.4 1.6 4.2s-.6 3.5-1.4 4.3c-.9.9-2.2.9-4 .9h-1.7V35.3ZM280 32.8h-2.5V48h2.7V37.3l.9 1.5 6 9.2h2.5V32.8h-2.7v10.5l-1-1.8-5.9-8.7Zm-9.3 9.4h-4l1.5-4.7.6-2 .5 2 1.4 4.7Zm-4.7 2.4h5.5l1.2 3.4h2.9l-5.3-15.2h-3L261.9 48h2.8l1.2-3.4Zm-13.1-2.8 5.8-9h-3.1l-4 6.5-3.9-6.5h-3l5.5 9V48h2.6v-6.2Zm-11.8.4h-4l1.4-4.7.6-2 .6 2 1.4 4.7Zm-4.8 2.4h5.6l1.1 3.4h3l-5.3-15.2h-3L232.1 48h2.8l1.2-3.4ZM223 48c2.9 0 4.7 0 6.3-1.6a8.3 8.3 0 0 0 2.2-6c0-3-1.2-5.3-2.8-6.6-1.6-1-3.1-1-5.6-1h-4.3V48h4.2Zm-1.4-12.7h1.4c2 0 3.2 0 4 .9 1.1.9 1.6 2.4 1.6 4.2s-.6 3.5-1.3 4.3c-1 .9-2.3.9-4 .9h-1.8V35.3Zm-6.3-2.5h-2.7V48h2.7V32.8ZM200.8 35h2.9c1 0 1.7.1 2.1.3.7.3 1.1 1 1.1 1.9s-.4 1.6-1 1.9c-.5.2-1.1.3-2.2.3h-2.9V35Zm2.8 6.8L207 48h3.2l-3.8-6.4c.4 0 .8-.3 1.2-.5 1.2-.8 2-2 2-3.7 0-2-.8-3.2-2.2-4a7.6 7.6 0 0 0-3.8-.6h-5.6V48h2.7v-6.1h2.8Zm-8-6.7v-2.4h-9.9V48h2.7v-6.5h6.8v-2.4h-6.8v-4h7.1ZM175.3 45v3h1.3v.2c0 1.2-.4 1.5-1.3 1.6v1.4c2.1 0 2.7-1 2.9-2.7v-3.5h-2.9Zm-5.2-3.3 5.8-9h-3l-4 6.5-4-6.5h-3l5.5 9V48h2.7v-6.2Zm-11.8.4h-4l1.5-4.7.5-2 .6 2 1.4 4.6Zm-4.7 2.4h5.5l1.2 3.4h2.9l-5.3-15.2h-3L149.6 48h2.8l1.2-3.4ZM140.4 48c2.8 0 4.6 0 6.2-1.6a8.3 8.3 0 0 0 2.3-6c0-3-1.2-5.4-2.9-6.6-1.6-1-3.1-1-5.6-1h-4.2V48h4.2Zm-1.5-12.8h1.5c2 0 3.1.2 4 1 1 .8 1.6 2.4 1.6 4.2s-.7 3.5-1.4 4.2c-1 1-2.2 1-4 1H139V35.2Zm-5.7-.2c-.9-1-2.7-2.5-5.9-2.5s-5.7 1.8-5.7 4.5 2 3.8 4.5 4.4l2 .4c1.6.4 2.7.8 2.7 2s-1 2-3.1 2a5.4 5.4 0 0 1-4.5-2.3l-2.3 1.7a8 8 0 0 0 6.7 3c3.8 0 6-1.8 6-4.6s-2-3.7-4.8-4.4l-1.9-.4c-1.7-.4-2.4-.8-2.4-2s1-2 2.8-2 3 .8 3.9 1.9l2-1.7Zm-23 .1h3c1 0 1.7.1 2.1.3.7.3 1.1 1 1.1 1.9s-.4 1.6-1 1.9c-.5.2-1.1.3-2.2.3h-3V35Zm2.9 6.8 3.5 6.1h3.2l-3.8-6.4 1.2-.5c1.2-.8 2-2 2-3.8 0-1.8-.8-3-2.2-3.9a7.6 7.6 0 0 0-3.8-.7h-5.6V48h2.7v-6.1h2.7Zm-14.8 3.9c-1.4 0-2.4-.5-3-1.6-.2-.5-.2-1-.2-2.6v-8.8h-2.7v8.9c0 2.2.2 3.2.8 4.2 1 1.7 2.9 2.4 5.1 2.4s4.1-.7 5.2-2.4c.5-1 .7-2 .7-4.2v-9h-2.6v9c0 1.4-.1 2-.4 2.5-.4 1.1-1.4 1.6-2.9 1.6m-12-4.5V48H89V32.8h-2.7v6.1h-6.8v-6.1h-2.7V48h2.7v-6.7h6.8ZM63 35.2h4.5V48h2.7V35.2h4.4v-2.4H63v2.4Zm-15.7-2.4h-2.5V48h2.6V37.3l1 1.5 6 9.2h2.5V32.8h-2.7v10.5l-1.1-1.8-5.8-8.8Zm-5.7 2.4v-2.4H31V48h11.3v-2.4h-8.6v-4.3H41V39h-7.3v-3.7h8ZM17.2 48h2.7v-6h2.4c1.8 0 3.6 0 4.8-1 1-.9 1.5-2.2 1.5-3.6s-.5-2.7-1.5-3.5c-1.2-1-3-1.1-4.8-1.1h-5.1V48Zm2.7-12.9h2.7c1.1 0 1.7.1 2.2.3.6.3 1 1.1 1 2s-.4 1.6-1 2c-.5.1-1 .2-2.2.2H20v-4.5Zm-17 5.3c0-3.3 1.7-5.5 4.3-5.5s4.3 2.2 4.3 5.5-1.6 5.4-4.3 5.4S3 43.7 3 40.4m-2.9 0c0 4.6 2.6 7.9 7.2 7.9s7.2-3.3 7.2-8-2.7-7.8-7.2-7.8S0 35.7 0 40.4M542.2 11.4c0 3.7-.9 7.7-4.3 7.7s-4.3-4-4.3-7.7.9-8 4.3-8 4.3 4.3 4.3 8m4 0c0-5.8-2.2-11.4-8.3-11.4s-8.4 6.1-8.4 11.4c0 6.1 2.2 11.2 8.4 11.2s8.3-5.7 8.3-11.2m-23 0c0 3.7-.8 7.7-4.2 7.7s-4.3-4-4.3-7.7.9-8 4.3-8 4.3 4.3 4.3 8m4 0C527.3 5.6 525 0 519 0s-8.4 6.1-8.4 11.4c0 6.1 2.2 11.2 8.4 11.2s8.3-5.7 8.3-11.2m-24-.2h4.2V6.9h-4.1v4.3Zm0 11h4.2v-4.3h-4.1v4.3ZM488 7.7c0-2.7 1.5-4.4 3.9-4.4 3.1 0 4 3.6 4 6.1a5 5 0 0 1-4 2.1c-2.5 0-3.9-1.5-3.9-3.8m-3.8 8.9c.7 3.2 2.7 6 7.4 6 5.5 0 8.5-4.3 8.5-11.6s-3.2-11-8.2-11-8 3.1-8 8 3.4 7 7.2 7c2.5 0 4.2-1.2 5-2-.2 3.3-1.5 6.3-4.4 6.3-2.5 0-3.5-2-3.8-3.5l-3.7.8ZM479.7.4h-3.1c0 1.7-.6 3-1.7 3.7-.8.6-2 1-3.7 1H470V8h6v14.2h3.7V.4Zm-15.5 9.2H455v3.5h9V9.6Zm-20.9 1.9c0 3.6-.8 7.6-4.2 7.6s-4.4-4-4.4-7.7 1-8 4.4-8 4.2 4.3 4.2 8m4 0c0-5.8-2.2-11.4-8.2-11.4s-8.4 6.1-8.4 11.4c0 6.1 2.2 11.2 8.4 11.2s8.2-5.7 8.2-11.2m-22.9 0c0 3.7-.8 7.7-4.2 7.7s-4.4-4-4.4-7.7 1-8 4.4-8 4.2 4.3 4.2 8m4 0c0-5.8-2.2-11.4-8.2-11.4s-8.4 6.1-8.4 11.4c0 6.1 2.2 11.2 8.4 11.2s8.2-5.7 8.2-11.2m-23.9-.2h4.2V6.9h-4.2v4.3Zm0 11h4.2V18h-4.2v4.2Zm-15-12.8c-.2-.6-.3-1.4-.3-2 0-2.2 1.2-4 3.6-4 2.2 0 3.6 1.4 3.6 3.6 0 2.9-1.9 4.5-4.6 7a52 52 0 0 1-6.6 5.2v3H401v-3.3H391l1-.8c3.8-2.9 8.3-6.4 8.3-11.3 0-4-2.8-6.8-7.3-6.8s-7.7 2.8-7.7 6.6c0 1 .2 1.8.4 2.3l3.8.5Zm-7.5-9h-3.2c0 1.7-.5 3-1.6 3.7-.9.6-2 1-3.8 1h-1.1V8h6v14.2h3.7V.4ZM359.6 18v4.2h1.8v.4c0 1.7-.6 2.1-1.8 2.2V27c3 0 3.9-1.5 4-3.8l.1-1.9V18h-4Zm-5.7-3.8V.4h-3.7l-9.9 14.1v2.9h10v4.8h3.6v-4.8h3.5v-3.2h-3.5Zm-9.6 0 3.3-4.5 2.9-4.8-.2 6v3.3h-6Zm-16.7-4.8c-.2-.6-.3-1.4-.3-2 0-2.2 1.1-4 3.6-4 2.2 0 3.6 1.4 3.6 3.6 0 2.9-1.9 4.5-4.6 7a52.8 52.8 0 0 1-6.7 5.2v3H339v-3.3h-9.8l1-.8c3.8-2.9 8.3-6.4 8.3-11.3 0-4-2.9-6.8-7.3-6.8s-7.7 2.8-7.7 6.6c0 1 .2 1.7.4 2.3l3.8.5Zm-10.5 2c0 3.7-.8 7.7-4.2 7.7s-4.4-4-4.4-7.7 1-8 4.4-8 4.2 4.3 4.2 8m4 0C321.1 5.6 319 0 313 0s-8.4 6.1-8.4 11.4c0 6.1 2.2 11.2 8.4 11.2s8.2-5.7 8.2-11.2m-30.1-2a7 7 0 0 1-.4-2c0-2.2 1.2-4 3.6-4 2.2 0 3.6 1.4 3.6 3.6 0 2.9-1.9 4.5-4.6 7a52 52 0 0 1-6.7 5.2v3h15.8v-3.3h-9.8l1-.8c3.8-2.9 8.3-6.4 8.3-11.3 0-4-2.9-6.8-7.3-6.8s-7.7 2.8-7.7 6.6c0 1 .2 1.7.4 2.3l3.7.5Zm-19.7 3.9L279.7.4h-4.4l-5.7 9.3L264 .4h-4.4l7.9 12.9v8.9h3.8v-9Zm-16.8.5h-5.7l2-6.7.9-2.7.8 2.8 2 6.6Zm-6.8 3.4h8l1.6 5h4.1L254 .4h-4.4L242 22.2h4l1.7-5Zm-16.8 5 3.8-13.3c.5-2 .9-3.3 1-4.3h.1l-.2 8.4v9.2h3.7V.4h-5.8l-3.3 12L229 17l-1.2-4.6-3.5-12h-5.7v21.8h3.7v-9.3c0-4-.1-6.8-.2-7.8s.4 1.6 1 3.8l3.9 13.3h3.8Zm-34.7-8.8c.4-1.8 1.7-3 3.8-3 2.8 0 4 1.8 4 4.4s-1.2 4.5-4 4.5c-2.2 0-3.6-1.4-4-3.3l-3.7 1c.7 3.5 3.7 5.6 7.8 5.6 5.4 0 8-3.6 8-8s-2.9-7.4-7.2-7.4c-2.4 0-3.9 1-4.3 1.5l.8-4.9h9.3l.3-3.4h-12.6l-1.7 12.2 3.5.8Zm-17.3-4a7 7 0 0 1-.3-2c0-2.1 1.1-4 3.6-4 2.2 0 3.6 1.4 3.6 3.6 0 2.9-1.9 4.5-4.6 7a52 52 0 0 1-6.7 5.2v3h15.8v-3.3h-9.9l1-.8c3.8-2.8 8.4-6.4 8.4-11.3 0-4-2.9-6.8-7.3-6.8s-7.7 2.8-7.7 6.6c0 1 .2 1.8.4 2.3l3.7.6Zm-12 .2h-9.1v3.5h9.1V9.6Zm-21.5 3v9.6h3.8V.4h-3.8v8.8h-9.7V.4h-3.9v21.8h3.9v-9.6h9.7Zm-20.5 3a5.6 5.6 0 0 1-5.3 3.4c-4 0-6.2-3-6.2-7.7s2.4-7.8 6.2-7.8c2.5 0 4.3 1.3 5.3 3.6l3.4-2c-1.1-2-3.6-5-8.7-5-6.4 0-10.4 4.5-10.4 11.2s3.7 11.3 10.4 11.3c5.4 0 8-3.4 9-5.4l-3.7-1.5ZM93.6 3.8h4.1c1.6 0 2.4.1 3 .4 1 .4 1.6 1.5 1.6 2.7s-.6 2.2-1.5 2.7c-.7.3-1.5.4-3.1.4h-4.1V3.8Zm4 9.7 5 8.7h4.6l-5.5-9.1 1.7-.8c1.8-1.2 2.9-3 2.9-5.3a6 6 0 0 0-3.1-5.6c-1.7-1-3.6-1-5.5-1h-8v21.8h3.9v-8.7h3.9Zm-17.5.3h-5.7l2-6.7.8-2.7.9 2.8 2 6.6Zm-6.8 3.4h7.9l1.7 5H87L79.5.4H75l-7.6 21.8h4l1.7-5Zm-16.9 5 3.8-13.3c.6-2 1-3.3 1.1-4.3l-.2 8.4v9.2H65V.4H59l-3.3 12-1.2 4.6h-.1l-1.2-4.6-3.5-12h-5.7v21.8h3.7v-9.3c0-4-.1-6.7-.2-7.8h.1l1 3.8 3.8 13.3h3.9Zm-38.7-6.4c.4 4 2.7 6.8 8 6.8s7.8-2.9 7.8-6.6c0-3.4-2.2-4.8-4-5.5 1.6-.8 3.4-2.3 3.4-5 0-3.2-2.6-5.5-7.2-5.5C21 0 18.3 3 18.3 6.2l3.5.6c0-1.5.9-3.7 3.7-3.7C28 3 29 4.6 29 6c0 1.4-.7 2.5-2.2 3l-2.2.1H23v3.1h1.4c1 0 2 0 2.7.2 1.6.5 2.5 1.6 2.5 3.2 0 1.8-1.1 3.7-4 3.7-2.4 0-3.7-1.6-4-4.2l-3.8.6ZM5 9.4a7 7 0 0 1-.3-2c0-2.2 1.1-4 3.6-4 2.2 0 3.6 1.4 3.6 3.6 0 2.9-1.9 4.5-4.6 7a52 52 0 0 1-6.7 5.2v3h15.8v-3.3H6.6l1-.8c3.8-2.9 8.3-6.4 8.3-11.3 0-4-2.9-6.8-7.3-6.8S.9 2.8.9 6.6c0 1 .2 1.7.4 2.3l3.7.5Z"/></g></svg>
