<?xml version="1.0" encoding="UTF-8"?>
<svg id="_レイヤー_2" data-name="レイヤー 2" xmlns="http://www.w3.org/2000/svg" viewBox="0 0 546.18 149.76">
  <defs>
    <style>
      .cls-1 {
        fill: #231815;
        stroke-width: 0px;
      }
    </style>
  </defs>
  <g id="_デザイン" data-name="デザイン">
    <g>
      <path class="cls-1" d="m291.7,137.3c-.16-.48-.25-1-.25-1.51,0-1.48.81-2.83,2.51-2.83,1.55,0,2.51,1.03,2.51,2.6,0,2.03-1.3,3.2-3.21,4.93-2.22,2.03-3.41,2.92-4.66,3.77v2.12h11.05v-2.37h-4.53c-1.55,0-2.38.02-2.38.02v-.02l.7-.55c2.67-2.03,5.85-4.54,5.85-8.06,0-2.9-2.02-4.82-5.11-4.82s-5.38,1.99-5.38,4.7c0,.73.14,1.23.27,1.64l2.62.37Zm-16.05,4.52c.27,2.9,1.88,4.84,5.54,4.84s5.52-2.03,5.52-4.7c0-2.4-1.52-3.42-2.8-3.88,1.14-.55,2.35-1.67,2.35-3.54,0-2.28-1.77-3.95-4.98-3.95-3.39,0-5.18,2.03-5.22,4.43l2.44.41c.07-1.1.65-2.65,2.65-2.65,1.7,0,2.44,1.05,2.44,2.17,0,.98-.54,1.78-1.57,2.05-.4.11-.9.14-1.5.14h-1.23v2.21h1.01c.72,0,1.37,0,1.9.16,1.12.34,1.7,1.12,1.7,2.26,0,1.28-.78,2.62-2.74,2.62-1.75,0-2.62-1.12-2.82-2.97l-2.69.39Zm-4.55-3.08c0,2.62-.58,5.46-2.98,5.46s-3.05-2.83-3.05-5.46.65-5.68,3.05-5.68,2.98,3.01,2.98,5.68m2.8-.04c0-4.13-1.55-8.1-5.78-8.1s-5.88,4.36-5.88,8.1c0,4.38,1.55,7.97,5.88,7.97s5.78-4.02,5.78-7.97m-16.03.04c0,2.62-.58,5.46-2.98,5.46s-3.05-2.83-3.05-5.46.65-5.68,3.05-5.68,2.98,3.01,2.98,5.68m2.8-.04c0-4.13-1.55-8.1-5.79-8.1s-5.88,4.36-5.88,8.1c0,4.38,1.55,7.97,5.88,7.97s5.79-4.02,5.79-7.97m-13.77-1.25h-6.39v2.46h6.39v-2.46Zm-11.5,3.74c0,1.9-1.08,3.13-2.69,3.13-2.2,0-2.89-2.56-2.87-4.38.31-.55,1.37-1.51,2.87-1.51,1.7,0,2.69,1.07,2.69,2.76m2.65-6.34c-.45-2.28-1.88-4.25-5.14-4.25-3.88,0-5.96,3.04-5.96,8.22s2.2,7.85,5.76,7.85,5.54-2.24,5.54-5.64-2.33-5-5-5c-1.77,0-2.91.8-3.45,1.35.07-2.31,1.01-4.47,3-4.47,1.75,0,2.44,1.51,2.67,2.49l2.58-.55Zm-15.65,3.9c0,2.62-.58,5.46-2.98,5.46s-3.05-2.83-3.05-5.46.65-5.68,3.05-5.68,2.98,3.01,2.98,5.68m2.8-.04c0-4.13-1.55-8.1-5.78-8.1s-5.88,4.36-5.88,8.1c0,4.38,1.55,7.97,5.88,7.97s5.78-4.02,5.78-7.97m-13.98-7.83h-2.2c-.05,1.19-.4,2.08-1.17,2.65-.58.43-1.39.66-2.6.66h-.81v2.08h4.19v10.13h2.58v-15.52Zm-26.3,7.76c0-3.38,1.61-5.59,4.28-5.59s4.28,2.21,4.28,5.59-1.57,5.54-4.28,5.54-4.28-2.17-4.28-5.54m-2.94,0c0,4.72,2.6,8.03,7.22,8.03s7.22-3.31,7.22-8.03-2.78-8.03-7.22-8.03-7.22,3.29-7.22,8.03m-5.39,1.41l5.85-9.17h-3.09l-3.97,6.64-3.9-6.64h-3.12l5.54,9.17v6.34h2.69v-6.34Zm-15.1-2.76l6.21-6.41h-3.63l-6.66,7.01v-7.01h-2.69v15.52h2.69v-5.02l2.06-2.08,4.93,7.1h3.43l-6.35-9.11Zm-20.6,1.35c0-3.38,1.62-5.59,4.28-5.59s4.28,2.21,4.28,5.59-1.57,5.54-4.28,5.54-4.28-2.17-4.28-5.54m-2.94,0c0,4.72,2.6,8.03,7.22,8.03s7.22-3.31,7.22-8.03-2.78-8.03-7.22-8.03-7.22,3.29-7.22,8.03m-12.23-5.32h4.46v13.08h2.69v-13.08h4.44v-2.44h-11.59v2.44Zm-8.54,10.09v2.99h1.28v.27c0,1.23-.45,1.55-1.28,1.62v1.48c2.11-.05,2.69-1.1,2.85-2.74.02-.36.04-.89.04-1.3v-2.33h-2.89Zm-7.67.73c-1.43,0-2.44-.48-2.91-1.6-.25-.52-.34-1.09-.34-2.62v-9.04h-2.67v9.08c0,2.26.22,3.31.79,4.29,1.01,1.69,2.89,2.42,5.13,2.42s4.12-.73,5.13-2.42c.56-.98.79-2.03.79-4.29v-9.08h-2.67v9.04c0,1.53-.09,2.1-.34,2.62-.47,1.12-1.48,1.6-2.92,1.6m-13.92-6.85l6.21-6.41h-3.63l-6.66,7.01v-7.01h-2.69v15.52h2.69v-5.02l2.06-2.08,4.93,7.1h3.43l-6.35-9.11Zm-9.45.16h-6.39v2.46h6.39v-2.46Zm-20.16,1.19c0-3.38,1.62-5.59,4.28-5.59s4.28,2.21,4.28,5.59-1.57,5.54-4.28,5.54-4.28-2.17-4.28-5.54m-2.94,0c0,4.72,2.6,8.03,7.22,8.03s7.22-3.31,7.22-8.03-2.78-8.03-7.22-8.03-7.22,3.29-7.22,8.03m-11.84-5.32h4.46v13.08h2.69v-13.08h4.44v-2.44h-11.59v2.44Zm-4.1,7.12h-3.99l1.44-4.77c.25-.73.43-1.37.56-1.94h.02c.16.59.31,1.26.56,1.99l1.41,4.72Zm-4.75,2.44h5.54l1.17,3.51h2.89l-5.25-15.52h-3.05l-5.29,15.52h2.8l1.19-3.51Zm-15.47-12h-2.51v15.52h2.67v-5.18c0-2.6-.02-5.02-.05-5.75.02,0,.49.84.96,1.6l6.01,9.33h2.51v-15.52h-2.67v5.2c0,2.19.04,5.07.04,5.57-.2-.34-.83-1.37-1.17-1.89l-5.81-8.88Zm-5.23,0h-2.69v15.52h2.69v-15.52Zm-11.74,15.52l2.67-9.47c.38-1.37.65-2.37.78-3.04h.04c-.09,1.3-.18,3.77-.18,5.93v6.57h2.62v-15.52h-4.08l-2.29,8.56c-.34,1.3-.72,2.65-.85,3.26h-.04c-.11-.69-.43-1.78-.83-3.24l-2.42-8.58H1.3v15.52h2.62v-6.57c0-2.9-.09-4.84-.14-5.57h.05s.25,1.12.69,2.72l2.67,9.42h2.69Z"/>
      <path class="cls-1" d="m373.91,116.18v2.99h1.28v.27c0,1.23-.45,1.55-1.28,1.62v1.48c2.11-.05,2.69-1.1,2.85-2.74.02-.37.04-.89.04-1.3v-2.33h-2.89Zm-2.61-12.53h-2.69v15.52h2.69v-15.52Zm-19.26,7.76c0,4.72,2.6,8.03,7.02,8.03,1.68,0,3.14-.66,4.01-1.46v1.19h2.56v-8.49h-7.09v2.49h4.57c-.13,2.35-1.21,3.83-3.77,3.83-2.71,0-4.35-2.21-4.35-5.59s1.66-5.57,4.35-5.57c1.77,0,2.98.96,3.72,2.58l2.35-1.48c-.76-1.35-2.53-3.56-6.08-3.56-4.46,0-7.31,3.29-7.31,8.03m-11.53-7.76h-2.51v15.52h2.67v-5.18c0-2.6-.02-5.02-.04-5.75.02,0,.49.84.96,1.6l6.01,9.33h2.51v-15.52h-2.67v5.2c0,2.19.05,5.07.05,5.57-.2-.34-.83-1.37-1.17-1.89l-5.81-8.88Zm-16.34,7.76c0-3.38,1.61-5.59,4.28-5.59s4.28,2.21,4.28,5.59-1.57,5.55-4.28,5.55-4.28-2.17-4.28-5.55m-2.94,0c0,4.72,2.6,8.03,7.22,8.03s7.22-3.31,7.22-8.03-2.78-8.03-7.22-8.03-7.22,3.29-7.22,8.03m-12.59,7.76h2.69v-6.05h2.4c1.88,0,3.65-.09,4.89-1.16.94-.82,1.5-2.15,1.5-3.61s-.56-2.72-1.5-3.54c-1.23-1.07-3-1.16-4.89-1.16h-5.09v15.52Zm2.69-13.1h2.78c1.08,0,1.68.09,2.13.3.67.32,1.1,1.12,1.1,1.99s-.43,1.67-1.1,2.01c-.45.21-1.05.3-2.13.3h-2.78v-4.59Zm-16.07,13.1h2.69v-6.05h2.4c1.88,0,3.65-.09,4.89-1.16.94-.82,1.5-2.15,1.5-3.61s-.56-2.72-1.5-3.54c-1.23-1.07-3.01-1.16-4.89-1.16h-5.09v15.52Zm2.69-13.1h2.78c1.08,0,1.68.09,2.13.3.67.32,1.1,1.12,1.1,1.99s-.43,1.67-1.1,2.01c-.45.21-1.05.3-2.13.3h-2.78v-4.59Zm-16.52,5.34c0-3.38,1.61-5.59,4.28-5.59s4.28,2.21,4.28,5.59-1.57,5.55-4.28,5.55-4.28-2.17-4.28-5.55m-2.94,0c0,4.72,2.6,8.03,7.22,8.03s7.22-3.31,7.22-8.03-2.78-8.03-7.22-8.03-7.22,3.29-7.22,8.03m-10.55-5.34h2.89c1.1,0,1.68.09,2.15.3.67.3,1.08,1.05,1.08,1.9s-.4,1.62-1.08,1.94c-.47.21-1.05.3-2.15.3h-2.89v-4.43Zm2.76,6.89l3.54,6.21h3.21l-3.81-6.48c.36-.14.83-.32,1.19-.55,1.23-.84,2.02-2.1,2.02-3.81,0-1.89-.83-3.17-2.17-3.97-1.17-.68-2.53-.71-3.83-.71h-5.58v15.52h2.69v-6.21h2.76Zm-21.1-4.13c0-1.89,1.08-3.13,2.69-3.13,2.2,0,2.89,2.56,2.87,4.38-.31.55-1.37,1.51-2.87,1.51-1.7,0-2.69-1.07-2.69-2.76m-2.65,6.37c.45,2.28,1.88,4.24,5.14,4.24,3.88,0,5.96-3.04,5.96-8.22s-2.2-7.85-5.76-7.85-5.54,2.24-5.54,5.64,2.33,5,5,5c1.77,0,2.92-.8,3.45-1.35-.07,2.31-1.01,4.45-3,4.45-1.75,0-2.44-1.48-2.67-2.47l-2.58.55Zm-2.49-4.98h-6.39v2.46h6.39v-2.46Zm-11.5,3.74c0,1.89-1.08,3.13-2.69,3.13-2.2,0-2.89-2.56-2.87-4.38.31-.55,1.37-1.51,2.87-1.51,1.71,0,2.69,1.07,2.69,2.76m2.65-6.34c-.45-2.28-1.88-4.25-5.14-4.25-3.88,0-5.96,3.04-5.96,8.22s2.2,7.85,5.76,7.85,5.54-2.24,5.54-5.64-2.33-5-5-5c-1.77,0-2.92.8-3.45,1.35.07-2.3,1.01-4.47,3-4.47,1.75,0,2.44,1.51,2.67,2.49l2.58-.55Zm-13.39,2.6h-6.39v2.46h6.39v-2.46Zm-11.5,3.74c0,1.89-1.08,3.13-2.69,3.13-2.2,0-2.89-2.56-2.87-4.38.31-.55,1.37-1.51,2.87-1.51,1.7,0,2.69,1.07,2.69,2.76m2.65-6.34c-.45-2.28-1.88-4.25-5.14-4.25-3.88,0-5.96,3.04-5.96,8.22s2.2,7.85,5.76,7.85,5.54-2.24,5.54-5.64-2.33-5-5-5c-1.77,0-2.92.8-3.45,1.35.07-2.3,1.01-4.47,3-4.47,1.75,0,2.44,1.51,2.67,2.49l2.58-.55Zm-18.75,8.56v2.99h1.28v.27c0,1.23-.45,1.55-1.28,1.62v1.48c2.11-.05,2.69-1.1,2.85-2.74.02-.37.04-.89.04-1.3v-2.33h-2.89Zm-4.6,2.99h2.89v-3.01h-2.89v3.01Zm-15.66-7.76c0,4.72,2.6,8.03,7.02,8.03,1.68,0,3.14-.66,4.01-1.46v1.19h2.56v-8.49h-7.09v2.49h4.57c-.13,2.35-1.21,3.83-3.77,3.83-2.71,0-4.35-2.21-4.35-5.59s1.66-5.57,4.35-5.57c1.77,0,2.98.96,3.72,2.58l2.35-1.48c-.76-1.35-2.53-3.56-6.08-3.56-4.46,0-7.31,3.29-7.31,8.03m-10.06,7.76c2.85,0,4.62,0,6.26-1.62,1.41-1.37,2.22-3.58,2.22-6.19,0-3.03-1.19-5.38-2.85-6.62-1.55-1.1-3.09-1.1-5.56-1.1h-4.26v15.52h4.19Zm-1.48-12.99h1.48c2,0,3.14.11,4.04.91,1.03.91,1.57,2.46,1.57,4.36s-.65,3.54-1.37,4.29c-.94.91-2.24.94-3.95.94h-1.77v-10.5Zm-14.08-2.53v15.52h9.26v-2.51h-6.55v-13.01h-2.71Zm-5.85,4.36c0,.75-.31,1.32-.83,1.67-.58.37-1.48.34-2.15.34h-3.1v-3.99h3.1c1.08,0,1.52.07,1.95.27.58.27,1.03.91,1.03,1.71m-6.08,4.22h3.21c1.23,0,1.88.05,2.42.39.54.34.92,1,.92,1.87s-.38,1.53-.92,1.87c-.51.3-1.1.39-2.42.39h-3.21v-4.52Zm3.63,6.94c1.97,0,2.78-.25,3.52-.66,1.28-.71,2.09-2.03,2.09-3.77,0-1.94-1.14-3.22-2.53-3.79,1.14-.5,2.02-1.69,2.02-3.26s-.79-2.85-2-3.47c-.72-.37-1.53-.57-3.43-.57h-5.99v15.52h6.32Zm-13.95-13.08v-2.44h-10.67v15.52h11.23v-2.44h-8.54v-4.36h7.24v-2.44h-7.24v-3.83h7.98Zm-21.13,13.08c2.85,0,4.62,0,6.25-1.62,1.41-1.37,2.22-3.58,2.22-6.19,0-3.03-1.19-5.38-2.85-6.62-1.55-1.1-3.1-1.1-5.56-1.1h-4.26v15.52h4.19Zm-1.48-12.99h1.48c1.99,0,3.14.11,4.04.91,1.03.91,1.57,2.46,1.57,4.36s-.65,3.54-1.37,4.29c-.94.91-2.24.94-3.95.94h-1.77v-10.5Zm-5.43-2.53h-2.69v15.52h2.69v-15.52Zm-11.35,15.52l2.67-9.47c.38-1.37.65-2.37.78-3.04h.04c-.09,1.3-.18,3.77-.18,5.93v6.57h2.62v-15.52h-4.08l-2.29,8.56c-.34,1.3-.72,2.65-.85,3.26h-.04c-.11-.68-.43-1.78-.83-3.24l-2.42-8.58h-4.01v15.52h2.62v-6.57c0-2.9-.09-4.84-.13-5.57h.04s.25,1.12.69,2.72l2.67,9.43h2.69Zm-14.95-5.96h-3.99l1.43-4.77c.25-.73.43-1.37.56-1.94h.02c.16.59.31,1.25.56,1.98l1.41,4.72Zm-4.75,2.44h5.54l1.17,3.52h2.89l-5.25-15.52h-3.05l-5.29,15.52h2.8l1.19-3.52Zm-15-9.58h2.89c1.1,0,1.68.09,2.15.3.67.3,1.08,1.05,1.08,1.9s-.4,1.62-1.08,1.94c-.47.21-1.05.3-2.15.3h-2.89v-4.43Zm2.76,6.89l3.54,6.21h3.21l-3.81-6.48c.36-.14.83-.32,1.19-.55,1.23-.84,2.02-2.1,2.02-3.81,0-1.89-.83-3.17-2.17-3.97-1.17-.68-2.53-.71-3.84-.71h-5.58v15.52h2.69v-6.21h2.76Zm-8.17-9.31h-2.69v15.52h2.69v-15.52Zm-16.46,15.52h2.69v-6.05h2.4c1.88,0,3.65-.09,4.89-1.16.94-.82,1.5-2.15,1.5-3.61s-.56-2.72-1.5-3.54c-1.23-1.07-3.01-1.16-4.89-1.16h-5.09v15.52Zm2.69-13.1h2.78c1.08,0,1.68.09,2.13.3.67.32,1.1,1.12,1.1,1.99s-.43,1.67-1.1,2.01c-.45.21-1.05.3-2.13.3h-2.78v-4.59Zm-9.28.02v-2.44h-9.82v15.52h2.69v-6.6h6.84v-2.44h-6.84v-4.04h7.13Zm-14.3,7.42v-9.86h-2.58L.14,113.73v2.03h7v3.4h2.53v-3.4h2.4v-2.26h-2.4Zm-6.7,0l2.24-3.24c.96-1.42,1.7-2.69,2.04-3.4h.02c-.07.84-.13,2.99-.13,4.29v2.35H2.96Z"/>
      <path class="cls-1" d="m485.47,70.72h-3.59v22.17h3.81v-7.4c0-3.72-.03-7.17-.06-8.22.03,0,.7,1.21,1.38,2.28l8.59,13.33h3.59v-22.17h-3.81v7.43c0,3.13.06,7.24.06,7.96-.29-.49-1.19-1.96-1.67-2.71l-8.3-12.68Zm-23.34,11.08c0-4.83,2.31-7.99,6.12-7.99s6.12,3.16,6.12,7.99-2.24,7.92-6.12,7.92-6.12-3.1-6.12-7.92m-4.2,0c0,6.75,3.72,11.48,10.31,11.48s10.32-4.73,10.32-11.48-3.97-11.48-10.32-11.48-10.31,4.69-10.31,11.48m-3.32-11.08h-3.84v22.17h3.84v-22.17Zm-23.02,3.49h6.38v18.68h3.84v-18.68h6.34v-3.49h-16.56v3.49Zm-5.3,10.17h-5.7l2.05-6.81c.35-1.04.61-1.96.8-2.77h.03c.22.85.45,1.79.8,2.84l2.02,6.75Zm-6.79,3.49h7.91l1.67,5.02h4.13l-7.5-22.17h-4.36l-7.56,22.17h4l1.7-5.02Zm-17.75,5.02c4.07,0,6.6,0,8.94-2.31,2.02-1.96,3.17-5.12,3.17-8.83,0-4.34-1.7-7.69-4.07-9.46-2.21-1.56-4.42-1.56-7.94-1.56h-6.09v22.17h5.99Zm-2.11-18.55h2.11c2.85,0,4.48.16,5.77,1.3,1.47,1.3,2.24,3.52,2.24,6.23s-.93,5.05-1.95,6.13c-1.35,1.3-3.2,1.34-5.64,1.34h-2.53v-15Zm-20.91-3.62h-3.59v22.17h3.81v-7.4c0-3.72-.03-7.17-.06-8.22.03,0,.7,1.21,1.38,2.28l8.58,13.33h3.59v-22.17h-3.81v7.43c0,3.13.06,7.24.06,7.96-.29-.49-1.18-1.96-1.67-2.71l-8.3-12.68Zm-15.18,18.94c-2.05,0-3.49-.68-4.16-2.28-.35-.75-.48-1.56-.48-3.75v-12.91h-3.81v12.98c0,3.23.32,4.73,1.12,6.13,1.44,2.41,4.13,3.46,7.33,3.46s5.89-1.04,7.33-3.46c.8-1.4,1.12-2.9,1.12-6.13v-12.98h-3.81v12.91c0,2.18-.13,3-.48,3.75-.67,1.6-2.11,2.28-4.16,2.28m-27.46-7.86c0-4.83,2.31-7.99,6.12-7.99s6.12,3.16,6.12,7.99-2.24,7.92-6.12,7.92-6.12-3.1-6.12-7.92m-4.2,0c0,6.75,3.71,11.48,10.31,11.48s10.31-4.73,10.31-11.48-3.97-11.48-10.31-11.48-10.31,4.69-10.31,11.48m-1.97-7.6v-3.49h-14.03v22.17h3.84v-9.42h9.77v-3.49h-9.77v-5.77h10.19Zm-39.37,0h6.37v18.68h3.84v-18.68h6.34v-3.49h-16.56v3.49Zm-13.68-.03h4.13c1.57,0,2.4.13,3.07.42.96.42,1.54,1.5,1.54,2.71s-.58,2.31-1.54,2.77c-.67.29-1.5.42-3.07.42h-4.13v-6.33Zm3.94,9.85l5.06,8.87h4.58l-5.45-9.26c.51-.2,1.18-.46,1.7-.78,1.76-1.21,2.88-3,2.88-5.44,0-2.71-1.18-4.53-3.11-5.67-1.67-.98-3.62-1.01-5.48-1.01h-7.98v22.17h3.84v-8.87h3.94Zm-16.87.36h-5.7l2.05-6.81c.35-1.04.61-1.96.8-2.77h.03c.22.85.45,1.79.8,2.84l2.02,6.75Zm-6.79,3.49h7.91l1.66,5.02h4.13l-7.49-22.17h-4.36l-7.56,22.17h4l1.7-5.02Zm-18.77-4.04l8.36-13.11h-4.42l-5.67,9.49-5.57-9.49h-4.45l7.91,13.11v9.06h3.84v-9.06Zm-24.16-9.65h4.13c1.57,0,2.4.13,3.08.42.96.42,1.54,1.5,1.54,2.71s-.58,2.31-1.54,2.77c-.67.29-1.51.42-3.08.42h-4.13v-6.33Zm3.94,9.85l5.06,8.87h4.58l-5.45-9.26c.51-.2,1.18-.46,1.7-.78,1.76-1.21,2.88-3,2.88-5.44,0-2.71-1.19-4.53-3.11-5.67-1.66-.98-3.62-1.01-5.48-1.01h-7.98v22.17h3.84v-8.87h3.94Zm-16.87.36h-5.7l2.05-6.81c.35-1.04.61-1.96.8-2.77h.03c.23.85.45,1.79.8,2.84l2.02,6.75Zm-6.79,3.49h7.91l1.67,5.02h4.13l-7.49-22.17h-4.36l-7.56,22.17h4l1.7-5.02Zm-20.87-13.69h4.13c1.57,0,2.4.13,3.08.42.96.42,1.54,1.5,1.54,2.71s-.58,2.31-1.54,2.77c-.67.29-1.51.42-3.08.42h-4.13v-6.33Zm3.94,9.85l5.06,8.87h4.58l-5.45-9.26c.51-.2,1.19-.46,1.7-.78,1.76-1.21,2.88-3,2.88-5.44,0-2.71-1.18-4.53-3.11-5.67-1.67-.98-3.62-1.01-5.48-1.01h-7.98v22.17h3.84v-8.87h3.94Zm-26.98-2.22c0-4.83,2.31-7.99,6.12-7.99s6.12,3.16,6.12,7.99-2.24,7.92-6.12,7.92-6.12-3.1-6.12-7.92m-4.2,0c0,6.75,3.71,11.48,10.31,11.48s10.31-4.73,10.31-11.48-3.97-11.48-10.31-11.48-10.31,4.69-10.31,11.48m-18.55,11.08h3.84v-8.64h3.43c2.69,0,5.22-.13,6.98-1.66,1.35-1.17,2.15-3.06,2.15-5.15s-.8-3.88-2.15-5.05c-1.76-1.53-4.29-1.66-6.98-1.66h-7.27v22.17Zm3.84-18.71h3.97c1.54,0,2.4.13,3.04.42.96.46,1.57,1.6,1.57,2.84s-.61,2.38-1.57,2.87c-.64.29-1.51.42-3.04.42h-3.97v-6.55Zm-16.21,18.71l3.81-13.53c.54-1.96.93-3.39,1.12-4.34h.07c-.13,1.86-.26,5.38-.26,8.48v9.39h3.75v-22.17h-5.83l-3.27,12.23c-.48,1.86-1.02,3.78-1.22,4.66h-.06c-.16-.98-.61-2.54-1.19-4.63l-3.46-12.26h-5.73v22.17h3.75v-9.39c0-4.14-.13-6.91-.19-7.96h.06s.35,1.6.99,3.88l3.81,13.47h3.84Zm-16.2-18.68v-3.49h-15.25v22.17h16.05v-3.49h-12.2v-6.23h10.35v-3.49h-10.35v-5.48h11.4Zm-34.42,0h6.38v18.68h3.84v-18.68h6.34v-3.49h-16.56v3.49Zm-16.32-3.49h-3.59v22.17h3.81v-7.4c0-3.72-.03-7.17-.06-8.22.03,0,.71,1.21,1.38,2.28l8.58,13.33h3.59v-22.17h-3.81v7.43c0,3.13.06,7.24.06,7.96-.29-.49-1.18-1.96-1.67-2.71l-8.3-12.68Zm-22.78,11.08c0-4.83,2.31-7.99,6.12-7.99s6.12,3.16,6.12,7.99-2.24,7.92-6.12,7.92-6.12-3.1-6.12-7.92m-4.2,0c0,6.75,3.71,11.48,10.31,11.48s10.31-4.73,10.31-11.48-3.97-11.48-10.31-11.48-10.31,4.69-10.31,11.48m-5.02,4.43c-1.03,2.15-2.79,3.42-5.25,3.42-3.91,0-6.15-3.03-6.15-7.86s2.31-7.96,6.15-7.96c2.53,0,4.26,1.37,5.32,3.68l3.36-2.12c-1.09-1.92-3.62-5.09-8.68-5.09-6.38,0-10.38,4.69-10.38,11.48s3.68,11.48,10.38,11.48c5.35,0,7.91-3.42,8.9-5.48l-3.65-1.57Z"/>
      <path class="cls-1" d="m415.3,41.77l5.85-9.02h-3.09l-3.97,6.53-3.9-6.53h-3.12l5.54,9.02v6.24h2.69v-6.24Zm-11.75.38h-3.99l1.43-4.69c.25-.72.43-1.35.56-1.91h.02c.16.58.31,1.23.56,1.95l1.41,4.64Zm-4.76,2.4h5.54l1.17,3.45h2.89l-5.25-15.25h-3.05l-5.29,15.25h2.8l1.19-3.45Zm-13.21,3.45c2.85,0,4.62,0,6.26-1.59,1.41-1.35,2.22-3.52,2.22-6.08,0-2.98-1.19-5.29-2.85-6.5-1.55-1.08-3.1-1.08-5.56-1.08h-4.26v15.25h4.19Zm-1.48-12.76h1.48c2,0,3.14.11,4.04.9,1.03.9,1.57,2.42,1.57,4.28s-.65,3.48-1.37,4.22c-.94.9-2.24.92-3.95.92h-1.77v-10.32Zm-14.56-.11h2.89c1.1,0,1.68.09,2.15.29.67.29,1.08,1.03,1.08,1.86s-.4,1.59-1.08,1.91c-.47.2-1.05.29-2.15.29h-2.89v-4.35Zm2.76,6.77l3.54,6.1h3.21l-3.81-6.37c.36-.13.83-.31,1.19-.54,1.23-.83,2.02-2.06,2.02-3.75,0-1.86-.83-3.12-2.18-3.9-1.17-.67-2.54-.7-3.84-.7h-5.58v15.25h2.69v-6.1h2.76Zm-14.74,3.88c-1.43,0-2.45-.47-2.92-1.57-.25-.52-.34-1.08-.34-2.58v-8.88h-2.67v8.93c0,2.22.23,3.25.79,4.22,1.01,1.66,2.89,2.38,5.14,2.38s4.13-.72,5.14-2.38c.56-.96.79-2,.79-4.22v-8.93h-2.67v8.88c0,1.5-.09,2.06-.34,2.58-.47,1.1-1.48,1.57-2.92,1.57m-19.6-10.63h4.46v12.85h2.69v-12.85h4.44v-2.4h-11.6v2.4Zm-4.1,7h-3.99l1.43-4.69c.25-.72.43-1.35.56-1.91h.02c.16.58.31,1.23.56,1.95l1.41,4.64Zm-4.76,2.4h5.54l1.17,3.45h2.89l-5.25-15.25h-3.05l-5.29,15.25h2.8l1.19-3.45Zm-5.07-9.53c-.9-.99-2.76-2.54-5.92-2.54s-5.77,1.82-5.77,4.53,2.09,3.83,4.58,4.37l2.04.45c1.55.34,2.6.79,2.6,1.97s-1.05,2.06-3.1,2.06c-2.15,0-3.84-1.19-4.53-2.33l-2.24,1.62c1.05,1.48,3.32,3.12,6.64,3.12,3.81,0,6.12-1.88,6.12-4.71s-2.06-3.7-4.91-4.35l-1.84-.4c-1.73-.38-2.47-.81-2.47-1.93s1.03-2.04,2.8-2.04,3.1.78,3.95,1.84l2.04-1.66Zm-26.83,12.99c2.85,0,4.62,0,6.26-1.59,1.41-1.35,2.22-3.52,2.22-6.08,0-2.98-1.19-5.29-2.85-6.5-1.55-1.08-3.1-1.08-5.56-1.08h-4.26v15.25h4.19Zm-1.48-12.76h1.48c2,0,3.14.11,4.04.9,1.03.9,1.57,2.42,1.57,4.28s-.65,3.48-1.37,4.22c-.94.9-2.24.92-3.95.92h-1.77v-10.32Zm-15.81-2.49h-2.51v15.25h2.67v-5.09c0-2.56-.02-4.94-.04-5.65.02,0,.49.83.96,1.57l6.01,9.17h2.51v-15.25h-2.67v5.11c0,2.15.04,4.98.04,5.47-.2-.34-.83-1.35-1.17-1.86l-5.81-8.73Zm-9.26,9.4h-3.99l1.44-4.69c.25-.72.43-1.35.56-1.91h.02c.16.58.31,1.23.56,1.95l1.41,4.64Zm-4.76,2.4h5.54l1.17,3.45h2.89l-5.25-15.25h-3.05l-5.29,15.25h2.8l1.19-3.45Zm-13.14-2.78l5.85-9.02h-3.1l-3.97,6.53-3.9-6.53h-3.12l5.54,9.02v6.24h2.69v-6.24Zm-11.75.38h-3.99l1.43-4.69c.25-.72.43-1.35.56-1.91h.02c.16.58.31,1.23.56,1.95l1.41,4.64Zm-4.76,2.4h5.54l1.17,3.45h2.89l-5.25-15.25h-3.05l-5.29,15.25h2.8l1.19-3.45Zm-13.21,3.45c2.85,0,4.62,0,6.26-1.59,1.41-1.35,2.22-3.52,2.22-6.08,0-2.98-1.19-5.29-2.85-6.5-1.55-1.08-3.1-1.08-5.56-1.08h-4.26v15.25h4.19Zm-1.48-12.76h1.48c2,0,3.14.11,4.04.9,1.03.9,1.57,2.42,1.57,4.28s-.65,3.48-1.37,4.22c-.94.9-2.24.92-3.95.92h-1.77v-10.32Zm-6.21-2.49h-2.69v15.25h2.69v-15.25Zm-14.54,2.38h2.89c1.1,0,1.68.09,2.15.29.67.29,1.08,1.03,1.08,1.86s-.4,1.59-1.08,1.91c-.47.2-1.05.29-2.15.29h-2.89v-4.35Zm2.76,6.77l3.54,6.1h3.21l-3.81-6.37c.36-.13.83-.31,1.19-.54,1.23-.83,2.02-2.06,2.02-3.75,0-1.86-.83-3.12-2.17-3.9-1.17-.67-2.54-.7-3.84-.7h-5.58v15.25h2.69v-6.1h2.76Zm-8.01-6.75v-2.4h-9.83v15.25h2.69v-6.48h6.84v-2.4h-6.84v-3.97h7.13Zm-20.21,9.91v2.94h1.28v.27c0,1.21-.45,1.52-1.28,1.59v1.46c2.11-.04,2.69-1.08,2.85-2.69.02-.36.04-.88.04-1.28v-2.29h-2.89Zm-5.25-3.3l5.85-9.02h-3.1l-3.97,6.53-3.9-6.53h-3.12l5.54,9.02v6.24h2.69v-6.24Zm-11.75.38h-3.99l1.43-4.69c.25-.72.43-1.35.56-1.91h.02c.16.58.31,1.23.56,1.95l1.41,4.64Zm-4.76,2.4h5.54l1.17,3.45h2.89l-5.25-15.25h-3.05l-5.29,15.25h2.8l1.19-3.45Zm-13.21,3.45c2.85,0,4.62,0,6.26-1.59,1.41-1.35,2.22-3.52,2.22-6.08,0-2.98-1.19-5.29-2.85-6.5-1.55-1.08-3.1-1.08-5.56-1.08h-4.26v15.25h4.19Zm-1.48-12.76h1.48c2,0,3.14.11,4.04.9,1.03.9,1.57,2.42,1.57,4.28s-.65,3.48-1.37,4.22c-.94.9-2.24.92-3.95.92h-1.77v-10.32Zm-5.65-.22c-.9-.99-2.76-2.54-5.92-2.54s-5.76,1.82-5.76,4.53,2.09,3.83,4.58,4.37l2.04.45c1.55.34,2.6.79,2.6,1.97s-1.05,2.06-3.1,2.06c-2.15,0-3.84-1.19-4.53-2.33l-2.24,1.62c1.05,1.48,3.32,3.12,6.64,3.12,3.81,0,6.12-1.88,6.12-4.71s-2.06-3.7-4.91-4.35l-1.84-.4c-1.73-.38-2.47-.81-2.47-1.93s1.03-2.04,2.8-2.04,3.1.78,3.95,1.84l2.04-1.66Zm-22.95.11h2.89c1.1,0,1.68.09,2.15.29.67.29,1.08,1.03,1.08,1.86s-.4,1.59-1.08,1.91c-.47.2-1.05.29-2.15.29h-2.89v-4.35Zm2.76,6.77l3.54,6.1h3.21l-3.81-6.37c.36-.13.83-.31,1.19-.54,1.23-.83,2.02-2.06,2.02-3.75,0-1.86-.83-3.12-2.18-3.9-1.17-.67-2.54-.7-3.84-.7h-5.59v15.25h2.69v-6.1h2.76Zm-14.74,3.88c-1.44,0-2.45-.47-2.92-1.57-.25-.52-.34-1.08-.34-2.58v-8.88h-2.67v8.93c0,2.22.22,3.25.79,4.22,1.01,1.66,2.89,2.38,5.14,2.38s4.13-.72,5.14-2.38c.56-.96.79-2,.79-4.22v-8.93h-2.67v8.88c0,1.5-.09,2.06-.34,2.58-.47,1.1-1.48,1.57-2.92,1.57m-11.98-4.46l-.04,6.68h2.74v-15.25h-2.69v6.17h-6.82v-6.17h-2.69v15.25h2.69v-6.68h6.82Zm-23.33-6.17h4.46v12.85h2.69v-12.85h4.44v-2.4h-11.6v2.4Zm-15.74-2.4h-2.51v15.25h2.67v-5.09c0-2.56-.02-4.94-.04-5.65.02,0,.49.83.96,1.57l6.01,9.17h2.51v-15.25h-2.67v5.11c0,2.15.04,4.98.04,5.47-.2-.34-.83-1.35-1.17-1.86l-5.81-8.73Zm-5.65,2.4v-2.4h-10.68v15.25h11.24v-2.4h-8.55v-4.28h7.24v-2.4h-7.24v-3.77h7.99Zm-24.45,12.85h2.69v-5.94h2.4c1.88,0,3.66-.09,4.89-1.14.94-.81,1.5-2.11,1.5-3.54s-.56-2.67-1.5-3.48c-1.23-1.05-3.01-1.14-4.89-1.14h-5.09v15.25Zm2.69-12.88h2.78c1.08,0,1.68.09,2.13.29.67.31,1.1,1.1,1.1,1.95s-.43,1.64-1.1,1.97c-.45.2-1.05.29-2.13.29h-2.78v-4.51Zm-16.91,5.25c0-3.32,1.61-5.5,4.29-5.5s4.28,2.18,4.28,5.5-1.57,5.45-4.28,5.45-4.29-2.13-4.29-5.45m-2.94,0c0,4.64,2.6,7.9,7.22,7.9s7.22-3.25,7.22-7.9-2.78-7.9-7.22-7.9-7.22,3.23-7.22,7.9"/>
      <path class="cls-1" d="m542.18,11.44c0,3.69-.83,7.66-4.26,7.66s-4.36-3.97-4.36-7.66.93-7.98,4.36-7.98,4.26,4.23,4.26,7.98m4.01-.06c0-5.8-2.21-11.38-8.27-11.38s-8.39,6.12-8.39,11.38c0,6.15,2.21,11.18,8.39,11.18s8.27-5.64,8.27-11.18m-22.91.06c0,3.69-.83,7.66-4.26,7.66s-4.36-3.97-4.36-7.66.93-7.98,4.36-7.98,4.26,4.23,4.26,7.98m4.01-.06c0-5.8-2.21-11.38-8.27-11.38s-8.4,6.12-8.4,11.38c0,6.15,2.21,11.18,8.4,11.18s8.27-5.64,8.27-11.18m-23.9-.22h4.13v-4.23h-4.13v4.23Zm0,11.02h4.13v-4.23h-4.13v4.23Zm-15.48-14.52c0-2.66,1.54-4.39,3.85-4.39,3.14,0,4.13,3.59,4.1,6.15-.45.77-1.96,2.12-4.1,2.12-2.43,0-3.85-1.51-3.85-3.88m-3.78,8.94c.64,3.2,2.69,5.96,7.34,5.96,5.54,0,8.52-4.26,8.52-11.54s-3.14-11.02-8.23-11.02-7.92,3.14-7.92,7.92,3.33,7.02,7.15,7.02c2.53,0,4.17-1.12,4.93-1.89-.1,3.24-1.44,6.25-4.29,6.25-2.5,0-3.49-2.08-3.81-3.46l-3.68.77Zm-4.42-16.21h-3.14c-.06,1.67-.58,2.92-1.67,3.72-.83.61-1.99.93-3.72.93h-1.15v2.92h5.99v14.23h3.68V.38Zm-15.53,9.23h-9.13v3.46h9.13v-3.46Zm-20.85,1.83c0,3.69-.83,7.66-4.26,7.66s-4.36-3.97-4.36-7.66.93-7.98,4.36-7.98,4.26,4.23,4.26,7.98m4.01-.06c0-5.8-2.21-11.38-8.27-11.38s-8.39,6.12-8.39,11.38c0,6.15,2.21,11.18,8.39,11.18s8.27-5.64,8.27-11.18m-22.91.06c0,3.69-.83,7.66-4.26,7.66s-4.36-3.97-4.36-7.66.93-7.98,4.36-7.98,4.26,4.23,4.26,7.98m4.01-.06c0-5.8-2.21-11.38-8.27-11.38s-8.4,6.12-8.4,11.38c0,6.15,2.21,11.18,8.4,11.18s8.27-5.64,8.27-11.18m-23.9-.22h4.13v-4.23h-4.13v4.23Zm0,11.02h4.13v-4.23h-4.13v4.23Zm-14.96-12.75c-.23-.67-.35-1.41-.35-2.11,0-2.08,1.15-3.97,3.59-3.97,2.21,0,3.59,1.44,3.59,3.65,0,2.85-1.86,4.49-4.58,6.92-3.17,2.85-4.87,4.1-6.67,5.29v2.98h15.8v-3.33h-6.47c-2.21,0-3.4.03-3.4.03v-.03l.99-.77c3.81-2.85,8.36-6.38,8.36-11.31,0-4.07-2.88-6.76-7.31-6.76s-7.69,2.79-7.69,6.6c0,1.03.19,1.73.38,2.31l3.75.51Zm-7.6-9.04h-3.14c-.06,1.67-.58,2.92-1.67,3.72-.83.61-1.99.93-3.72.93h-1.15v2.92h5.99v14.23h3.68V.38Zm-22.36,17.59v4.2h1.83v.38c0,1.73-.64,2.18-1.83,2.27v2.08c3.01-.06,3.85-1.54,4.07-3.85.03-.51.06-1.25.06-1.83v-3.27h-4.13Zm-5.69-3.75V.38h-3.68l-9.93,14.16v2.85h10v4.77h3.62v-4.77h3.43v-3.17h-3.43Zm-9.58,0l3.21-4.55c1.38-1.99,2.43-3.78,2.92-4.77h.03c-.1,1.19-.19,4.2-.19,6.02v3.3h-5.96Zm-16.7-4.81c-.23-.67-.35-1.41-.35-2.11,0-2.08,1.15-3.97,3.59-3.97,2.21,0,3.59,1.44,3.59,3.65,0,2.85-1.86,4.49-4.58,6.92-3.17,2.85-4.87,4.1-6.66,5.29v2.98h15.8v-3.33h-6.47c-2.21,0-3.4.03-3.4.03v-.03l.99-.77c3.81-2.85,8.36-6.38,8.36-11.31,0-4.07-2.88-6.76-7.31-6.76s-7.69,2.79-7.69,6.6c0,1.03.19,1.73.39,2.31l3.75.51Zm-10.53,2.02c0,3.69-.83,7.66-4.26,7.66s-4.36-3.97-4.36-7.66.93-7.98,4.36-7.98,4.26,4.23,4.26,7.98m4.01-.06c0-5.8-2.21-11.38-8.27-11.38s-8.4,6.12-8.4,11.38c0,6.15,2.21,11.18,8.4,11.18s8.27-5.64,8.27-11.18m-30.17-1.96c-.22-.67-.35-1.41-.35-2.11,0-2.08,1.15-3.97,3.59-3.97,2.21,0,3.59,1.44,3.59,3.65,0,2.85-1.86,4.49-4.58,6.92-3.17,2.85-4.87,4.1-6.67,5.29v2.98h15.8v-3.33h-6.47c-2.21,0-3.4.03-3.4.03v-.03l.99-.77c3.81-2.85,8.36-6.38,8.36-11.31,0-4.07-2.88-6.76-7.31-6.76s-7.69,2.79-7.69,6.6c0,1.03.19,1.73.38,2.31l3.75.51Zm-19.64,3.85l8.36-12.88h-4.42l-5.67,9.32-5.58-9.32h-4.45l7.91,12.88v8.91h3.85v-8.91Zm-16.79.54h-5.7l2.05-6.7c.35-1.03.61-1.92.8-2.72h.03c.22.83.45,1.76.8,2.79l2.02,6.63Zm-6.79,3.43h7.91l1.67,4.94h4.13L253.9.38h-4.36l-7.56,21.79h4.01l1.7-4.94Zm-16.89,4.94l3.81-13.3c.54-1.92.93-3.33,1.12-4.26h.06c-.13,1.83-.26,5.29-.26,8.33v9.23h3.75V.38h-5.83l-3.27,12.02c-.48,1.83-1.03,3.72-1.22,4.58h-.06c-.16-.96-.61-2.5-1.18-4.55l-3.46-12.05h-5.74v21.79h3.75v-9.23c0-4.07-.13-6.79-.19-7.82h.06s.35,1.57.99,3.81l3.81,13.23h3.85Zm-34.67-8.84c.45-1.76,1.76-3.01,3.85-3.01,2.75,0,4.04,1.89,4.04,4.45s-1.25,4.52-4.01,4.52c-2.24,0-3.62-1.44-4.01-3.36l-3.78.99c.74,3.59,3.72,5.64,7.82,5.64,5.41,0,8.01-3.59,8.01-7.98s-2.85-7.37-7.15-7.37c-2.4,0-3.91.99-4.36,1.47l.77-4.9h9.32l.32-3.4h-12.59l-1.67,12.18,3.43.77Zm-17.25-3.91c-.22-.67-.35-1.41-.35-2.11,0-2.08,1.15-3.97,3.59-3.97,2.21,0,3.59,1.44,3.59,3.65,0,2.85-1.86,4.49-4.58,6.92-3.17,2.85-4.87,4.1-6.67,5.29v2.98h15.8v-3.33h-6.47c-2.21,0-3.4.03-3.4.03v-.03l.99-.77c3.81-2.85,8.36-6.38,8.36-11.31,0-4.07-2.88-6.76-7.31-6.76s-7.69,2.79-7.69,6.6c0,1.03.19,1.73.39,2.31l3.75.51Zm-12.03.19h-9.13v3.46h9.13v-3.46Zm-21.51,3.01l-.06,9.55h3.91V.38h-3.85v8.81h-9.74V.38h-3.85v21.79h3.85v-9.55h9.74Zm-20.54,3.01c-1.03,2.11-2.79,3.36-5.26,3.36-3.91,0-6.15-2.98-6.15-7.72s2.31-7.82,6.15-7.82c2.53,0,4.26,1.35,5.32,3.62l3.37-2.08c-1.09-1.89-3.62-5-8.68-5-6.38,0-10.38,4.61-10.38,11.28s3.69,11.28,10.38,11.28c5.35,0,7.91-3.36,8.91-5.38l-3.65-1.54Zm-31.28-11.86h4.13c1.57,0,2.4.13,3.08.42.96.42,1.54,1.47,1.54,2.66s-.58,2.27-1.54,2.72c-.67.29-1.51.42-3.08.42h-4.13V3.78Zm3.94,9.68l5.06,8.72h4.58l-5.45-9.1c.51-.19,1.19-.45,1.7-.77,1.76-1.19,2.88-2.95,2.88-5.35,0-2.66-1.18-4.45-3.11-5.58-1.67-.96-3.62-.99-5.48-.99h-7.98v21.79h3.85v-8.72h3.94Zm-17.43.35h-5.7l2.05-6.7c.35-1.03.61-1.92.8-2.72h.03c.23.83.45,1.76.8,2.79l2.02,6.63Zm-6.79,3.43h7.91l1.67,4.94h4.13L79.46.38h-4.36l-7.56,21.79h4.01l1.7-4.94Zm-16.89,4.94l3.81-13.3c.54-1.92.93-3.33,1.12-4.26h.06c-.13,1.83-.26,5.29-.26,8.33v9.23h3.75V.38h-5.83l-3.27,12.02c-.48,1.83-1.03,3.72-1.22,4.58h-.06c-.16-.96-.61-2.5-1.19-4.55L49.82.38h-5.74v21.79h3.75v-9.23c0-4.07-.13-6.79-.19-7.82h.06s.35,1.57.99,3.81l3.81,13.23h3.85Zm-38.71-6.41c.39,4.07,2.69,6.79,7.92,6.79s7.88-2.85,7.88-6.6c0-3.36-2.18-4.81-4-5.45,1.63-.77,3.36-2.34,3.36-4.97,0-3.2-2.53-5.54-7.11-5.54-4.84,0-7.4,2.85-7.47,6.22l3.49.58c.1-1.54.93-3.72,3.78-3.72,2.43,0,3.49,1.47,3.49,3.04,0,1.38-.77,2.5-2.24,2.88-.58.16-1.28.19-2.15.19h-1.76v3.11h1.44c1.03,0,1.96,0,2.72.22,1.6.48,2.44,1.57,2.44,3.17,0,1.79-1.12,3.69-3.91,3.69-2.5,0-3.75-1.57-4.04-4.17l-3.85.54Zm-12.65-6.35c-.22-.67-.35-1.41-.35-2.11,0-2.08,1.15-3.97,3.59-3.97,2.21,0,3.59,1.44,3.59,3.65,0,2.85-1.86,4.49-4.58,6.92-3.17,2.85-4.87,4.1-6.67,5.29v2.98h15.8v-3.33h-6.47c-2.21,0-3.4.03-3.4.03v-.03l.99-.77c3.81-2.85,8.36-6.38,8.36-11.31,0-4.07-2.88-6.76-7.31-6.76S.86,2.79.86,6.6c0,1.03.19,1.73.39,2.31l3.75.51Z"/>
    </g>
  </g>
</svg>