<svg xmlns="http://www.w3.org/2000/svg" viewBox="0 0 576.6 343"><defs/><g><path class="cls-1" d="m438 292.7 10.9-38c1.6-5.4 2.7-9.4 3.2-12h.2c-.4 5.1-.8 15-.8 23.7v26.3h10.8v-62.1h-16.8l-9.3 34.2c-1.4 5.2-3 10.6-3.5 13h-.2c-.5-2.7-1.8-7-3.4-12.9l-10-34.3h-16.5v62h10.8v-26.2c0-11.6-.4-19.4-.6-22.3h.2s1 4.5 2.9 10.8l11 37.8h11Zm-70.3-9c-5.9 0-10-2-12-6.5-1-2-1.4-4.3-1.4-10.5v-36.1h-11v36.3c0 9 1 13.3 3.3 17.2 4.2 6.7 11.9 9.7 21.1 9.7s17-3 21.1-9.7c2.3-4 3.2-8.1 3.2-17.2v-36.3h-11v36.1c0 6.2-.3 8.4-1.3 10.5-2 4.5-6 6.4-12 6.4M297 240.2h11.9c4.5 0 7 .4 8.9 1.2 2.7 1.2 4.4 4.2 4.4 7.6s-1.7 6.5-4.4 7.8c-2 .8-4.4 1.2-8.9 1.2h-11.9v-17.7Zm11.3 27.6 14.6 24.9H336l-15.7-26a17.6 17.6 0 0 0 13.2-17.4c0-7.6-3.4-12.7-9-15.9a31 31 0 0 0-15.7-2.8h-23v62.1H297v-24.9h11.3Zm-79.1-27.5h18.3v52.4h11v-52.4h18.3v-9.7h-47.6v9.7ZM214.4 274c-3 6-8 9.6-15.1 9.6-11.3 0-17.7-8.5-17.7-22s6.6-22.3 17.7-22.3c7.2 0 12.2 3.9 15.2 10.3l9.7-5.9a27.7 27.7 0 0 0-25-14.2c-18.3 0-29.8 13.1-29.8 32.1s10.6 32.2 29.8 32.2c15.4 0 22.8-9.6 25.7-15.4l-10.5-4.4Zm-51.7-33.7v-9.7H119v62H165V283h-35v-17.4h29.7v-9.8h-29.8v-15.4h32.8ZM62.3 292.7h11v-24.2h10c7.7 0 15-.4 20-4.7 3.9-3.3 6.2-8.6 6.2-14.4s-2.3-10.9-6.2-14.2c-5-4.3-12.4-4.6-20-4.6h-21v62Zm11-52.5h11.5c4.4 0 6.9.4 8.7 1.2 2.8 1.3 4.5 4.5 4.5 8s-1.7 6.7-4.5 8c-1.8.8-4.3 1.2-8.7 1.2H73.4v-18.3Zm-21.5-.4c-3.7-4-11.3-10.3-24.3-10.3s-23.7 7.4-23.7 18.4 8.6 15.6 18.8 17.8l8.4 1.9c6.4 1.3 10.7 3.2 10.7 8S37.4 284 29 284c-8.9 0-15.8-4.8-18.6-9.5l-9.2 6.6c4.3 6 13.6 12.7 27.2 12.7 15.7 0 25.2-7.7 25.2-19.2s-8.5-15-20.2-17.7l-7.6-1.7c-7-1.5-10.1-3.3-10.1-7.8s4.2-8.3 11.5-8.3 12.7 3.2 16.2 7.5l8.4-6.8ZM316.1 207.2c11.7 0 19 0 25.7-6.5a33.6 33.6 0 0 0 9.1-24.8c0-12.1-4.8-21.5-11.6-26.5-6.4-4.4-12.8-4.4-22.9-4.4h-17.5v62.2H316Zm-6-52h6c8.2 0 13 .5 16.6 3.6 4.2 3.7 6.5 10 6.5 17.5s-2.7 14.1-5.7 17.2c-3.8 3.6-9.2 3.7-16.2 3.7H310v-42ZM248.3 145H238v62h11v-20.7l-.2-23s2 3.4 4 6.4l24.6 37.4h10.3V145h-11V166c0 8.7.3 20.2.3 22.3l-4.8-7.6-23.9-35.6Zm-67.1 31c0-13.5 6.6-22.4 17.6-22.4s17.6 8.9 17.6 22.4-6.5 22.2-17.6 22.2-17.6-8.7-17.6-22.2m-12.1 0c0 19 10.7 32.2 29.7 32.2s29.6-13.3 29.6-32.2S217 144 198.8 144 169 157 169 176m-23.8 5.7 24-36.8h-12.6l-16.3 26.6-16-26.5h-12.9l22.8 36.7v25.4h11v-25.4Zm-41.5-27v-9.7H60v62H106v-9.7h-35V180h29.7v-9.8H71.1v-15.4h32.8Zm-64.6 7.7c0 3-1.3 5.3-3.5 6.7-2.3 1.4-6 1.3-8.8 1.3H14.2v-16h12.7c4.4 0 6.3.3 8 1.1a7.5 7.5 0 0 1 4.3 6.9m-25 16.9h13.2c5 0 7.7.2 10 1.5 2.1 1.4 3.7 4 3.7 7.5s-1.6 6.2-3.8 7.5c-2.1 1.2-4.5 1.6-10 1.6H14.3v-18.1Zm15 27.8c8 0 11.3-1 14.4-2.7 5.2-2.8 8.5-8.1 8.5-15 0-7.8-4.7-13-10.4-15.2 4.7-2 8.3-6.8 8.3-13s-3.2-11.5-8.2-14c-3-1.4-6.2-2.3-14-2.3H3v62.2h26ZM552.2 121.7l11-38c1.6-5.4 2.7-9.4 3.2-12h.2c-.4 5.1-.7 15-.7 23.7v26.3h10.7V59.6H560l-9.4 34.2c-1.4 5.2-3 10.6-3.5 13h-.2c-.5-2.7-1.8-7-3.4-12.9l-10-34.4H517v62.2h10.8V95.4c0-11.6-.4-19.4-.5-22.3h.1s1 4.4 2.9 10.8l11 37.8h11Zm-82-62.1v62h38v-10h-26.8v-52h-11.2Zm-26 38.2h-16.5l6-19c1-3 1.7-5.5 2.2-7.8h.1c.7 2.4 1.3 5 2.3 8l5.8 18.8Zm-19.6 9.8h22.7l4.8 14h12l-21.6-62h-12.6l-21.7 62h11.5l4.9-14Zm-24.3-38.3v-9.7h-43.8v62h46.1V112h-35V94.5h29.7v-9.8h-29.8V69.3h32.8Zm-89.3 0h12c4.4 0 6.8.3 8.8 1.1 2.7 1.2 4.4 4.2 4.4 7.6s-1.7 6.5-4.4 7.8c-2 .8-4.4 1.2-8.9 1.2H311V69.2Zm11.4 27.5 14.5 24.9h13.2l-15.7-26a29 29 0 0 0 5-2.2c5-3.3 8.2-8.4 8.2-15.2 0-7.6-3.4-12.7-9-16a31 31 0 0 0-15.7-2.7h-23v62H311V96.9h11.4Zm-57-27.5v-9.7h-43.8v62h46.2V112h-35.2V94.5h29.8v-9.8h-29.7V69.3h32.8Zm-66 25.1-.2 27.3h11.2V59.5h-11v25.2h-28V59.5h-11.1v62.2h11V94.4h28Zm-95.9-25H122v52.3h11V69.3h18.3v-9.7h-47.7v9.7Zm-67.8-9.8H25.3v62h11V101c0-10.4 0-20-.2-23 .1 0 2 3.4 4 6.4l24.7 37.4H75V59.5H64v20.9l.2 22.3-4.8-7.6-23.8-35.6Zm-20 0h-11v62h11v-62ZM394 313.4H389v29h5.1V322l1.8 3 11.6 17.5h4.8v-29.1h-5.1V333.6c-.3-.7-1.5-2.6-2.2-3.6L394 313.4Zm-31.5 14.5c0-6.3 3.1-10.4 8.3-10.4s8.2 4.1 8.2 10.4-3 10.4-8.2 10.4-8.3-4-8.3-10.4m-5.6 0c0 8.9 5 15 13.9 15s13.8-6.1 13.8-15-5.3-15-13.8-15-14 6.1-14 15m-25.6 14.6h5.2V331h4.6c3.6 0 7-.1 9.4-2.2 1.8-1.5 2.9-4 2.9-6.7s-1.1-5-3-6.6c-2.3-2-5.7-2.2-9.3-2.2h-9.8v29Zm5.2-24.6h5.3c2 0 3.2.2 4 .6 1.4.6 2.2 2 2.2 3.7s-.8 3.1-2.1 3.8c-.9.3-2 .5-4.1.5h-5.3V318Zm-18.2 13.4h-7.7l2.8-9c.5-1.3.8-2.5 1-3.6h.1l1 3.8 2.8 8.8Zm-9.1 4.6h10.6l2.3 6.6h5.5l-10-29.1h-6l-10.1 29h5.4l2.3-6.5Zm-29.3-18h8.6v24.6h5.2V318h8.5v-4.6h-22.3v4.6Zm-25.6 0h8.6v24.6h5.2V318h8.5v-4.6h-22.3v4.6Zm-7.9 13.4h-7.6l2.7-9 1.1-3.6 1.1 3.8 2.7 8.8Zm-9.1 4.6h10.6l2.3 6.6h5.5l-10-29.1h-6l-10 29h5.3l2.3-6.5ZM227 317.7c-1.7-1.9-5.3-4.8-11.4-4.8s-11 3.4-11 8.6 4 7.3 8.7 8.3l4 .9c2.9.6 5 1.5 5 3.7s-2.1 4-6 4c-4.2 0-7.4-2.3-8.7-4.5l-4.3 3.1c2 2.8 6.3 6 12.7 6 7.3 0 11.8-3.6 11.8-9s-4-7-9.5-8.3l-3.5-.8c-3.3-.7-4.7-1.5-4.7-3.7s2-3.9 5.4-3.9 5.9 1.5 7.5 3.5l4-3.1Zm-45.2 13.6H174l2.8-9c.5-1.3.8-2.5 1-3.6h.1l1 3.8 2.8 8.8Zm-9.1 4.6h10.6l2.2 6.5h5.6l-10-29h-6l-10.1 29h5.4l2.3-6.5Zm-29.8-22.5h-4.8v29h5.1V322l1.8 3 11.5 17.4h4.9v-29h-5.2v9.7l.1 10.5-2.2-3.6-11.2-16.6Zm-10.8 4.6v-4.6h-20.6v29h21.6V338h-16.4v-8.2h14v-4.6h-14V318h15.4Zm-26.6 0v-4.6H85v29h21.6V338H90.2v-8.2H104v-4.6H90V318h15.4Zm-43.3 0h5.6c2 0 3.2 0 4.1.5 1.3.5 2 2 2 3.5s-.7 3-2 3.7c-.9.3-2 .5-4.1.5h-5.6V318Zm5.3 12.8 6.8 11.7h6.2l-7.3-12.2c.7-.2 1.6-.6 2.2-1 2.4-1.6 4-4 4-7.2a8 8 0 0 0-4.3-7.4 14.6 14.6 0 0 0-7.3-1.3H57v29h5.2v-11.6h5.3Zm-24.2.5h-7.6l2.7-9c.5-1.3.8-2.5 1-3.6h.1l1.1 3.8 2.7 8.8Zm-9.1 4.6h10.6l2.3 6.5h5.5l-10-29h-6l-10 29h5.3l2.3-6.5Zm-10.5-18.2c-1.7-1.9-5.3-4.8-11.4-4.8s-11 3.4-11 8.6 4 7.3 8.7 8.3l4 .9c3 .6 5 1.5 5 3.7s-2 4-6 4c-4.1 0-7.4-2.3-8.7-4.5L0 337c2 2.8 6.4 6 12.7 6 7.4 0 11.8-3.6 11.8-9s-4-7-9.4-8.3l-3.6-.8c-3.3-.7-4.7-1.5-4.7-3.7s2-3.9 5.4-3.9 6 1.5 7.6 3.5l3.9-3.1ZM531 32.3c.2.3.3.3.4.3.2 0 .4-.2.4-.5a40 40 0 0 0 9.9-5.4c3.9-2.9 6-6 7.5-8-1-1-1.5-1.6-2.5-3.3a28.5 28.5 0 0 1-18 13l2.3 3.9Zm-2.6-17.2c1.2.6 3.5 1.7 6 3.9l2.4-3.3c-.7-.7-2-1.9-6-4l-2.4 3.4Zm-9 8a28 28 0 0 1 4.6 6.2l3-2.6a32.5 32.5 0 0 0-4.8-5.8l-2.9 2.3Zm-9.7-1.8a17 17 0 0 1-5.1 6.2 19 19 0 0 1 3.2 2.5c1.6-1.5 3.7-4.2 4.8-6 .2 0 .7 0 .7-.4l-.4-.4-3.2-1.9Zm4.3-4.8h-8V20h8v7.6c0 .5 0 1.2-1 1.2a11 11 0 0 1-2-.2c.8 1.4 1 2.2 1.3 3.7l1.6.1c4 0 4-2.3 4-3.8V20h8v-3.5h-8v-4.3c.2 0 .4-.2.4-.4s-.3-.2-.4-.2l-4-.1v5Zm10.7-5c.6 0 1 .6 1 1.1s-.4 1.1-1 1.1a1 1 0 0 1 0-2.1m0-1.2c-1.2 0-2.3 1-2.3 2.2s1 2.3 2.3 2.3 2.3-1 2.3-2.3-1-2.2-2.3-2.2m-34 11.8a40 40 0 0 1 3.9 2.5 20.4 20.4 0 0 1-8.6 5c1 1 1.9 2 2.6 3.2 2-.7 5.6-2.2 8.8-5.8l2.1 2.4 2.3-3.2c-.3-.4-.7-1-2-2.2 1.2-2 1.8-3.3 3.3-7l.6-1-1.8-1.5c-.3.1-.7.3-1.6.3H495l1.2-2c.3-.1.6-.2.6-.4s-.2-.2-.5-.3l-3.7-1.2a22 22 0 0 1-7.9 10c1.4 1 1.5 1.2 3 2.6 2-1.5 3.7-3.4 5.1-5.4h5.7c-.2.7-.7 2-1.7 3.7-1-.8-2.1-1.4-3.8-2.3l-2.3 2.6Zm-10.9-6c-1 7.7-4.1 11-10.3 13.4 1.3 1 2 2.2 2.3 2.7 5.6-2.4 9.5-5.8 11.5-14.3.1 0 .5 0 .5-.3 0-.2-.2-.3-.5-.4l-3.5-1Zm-8.4 1c.7 1 1.7 3.2 2.1 4.4a25 25 0 0 1 3-1.2c-.5-2-1.1-3.2-2-4.5l-3 1.2Zm-4.9 1c.8 1.5 1.7 3.1 2.3 4.7 1-.8 2.5-1.3 3-1.5a38 38 0 0 0-2.1-4.4l-3.2 1.3Zm-10.2-2h-4.1v-3.7l.3-.4c0-.3-.2-.3-.5-.3l-3.7-.2v4.6h-4.6V20h4.6v5.4h3.9V20h4.1c0 2-.1 3.5-.8 5-.3.7-1.7 3.5-6 5 .6.5 2 1.5 3 3a13 13 0 0 0 7.1-7.6c.2-.6.7-1.8.8-5.4h4.2v-3.8h-4.2v-3.9c.1 0 .4-.2.4-.4s-.2-.3-.4-.3l-4-.2v4.8Zm-17.9 3a3 3 0 1 0 0 5.8 3 3 0 0 0 0-5.8m-16.8-2.6h-9.3v3.6h9.3c-.2 2.6-.5 6.8-7.5 9.8 1.5 1 2.6 2.4 3 3 6.8-3.5 8.3-8.8 8.5-12.8h7.6v-3.6h-7.6v-4.3c.2 0 .5-.2.5-.5s-.2-.3-.5-.3l-4-.1v5.2Zm-32 7.6h20.9V20h-21v4Zm-6.4-13V20c0 2.5-.1 7.3-7.7 10a7 7 0 0 1 2.5 3c3.3-1 6-3.6 7.3-5.6 1.5-2.1 2-4.8 2-7.4v-7.8c.1-.1.4-.2.4-.5 0-.2-.2-.3-.4-.3l-4.1-.1Zm-11 .5v12.6h4V12.6c.2-.1.5-.3.5-.5s-.2-.2-.5-.2l-4-.2Zm-10.4 4.5h-4.2v-3.7l.4-.4c0-.3-.3-.3-.5-.3l-3.8-.2v4.6H349V20h4.6v5.4h3.9V20h4.2c-.1 2-.2 3.5-1 5-.2.7-1.6 3.5-5.8 5 .6.5 2 1.5 3 3a13 13 0 0 0 7-7.6c.3-.6.7-1.8.8-5.4h4.2v-3.8h-4.2v-3.9c.2 0 .4-.2.4-.4s-.2-.3-.4-.3l-4-.2v4.8ZM340.4 0h-1.6v44.2h1.6V0ZM318 18.8c1.6 1.8 2 2.4 3.5 4.6l3.1-2.4c-.8-1.3-2.5-3.3-3.7-4.3l-3 2.1Zm4.2-2.8c1.6 1.8 2 2.3 3.6 4.5l2.9-2.5a26 26 0 0 0-3.6-4.2l-3 2.2Zm4.2-11.8a96.8 96.8 0 0 1-16 3c-8.3.9-11.8.9-18 .9l1 7.5c3.9-.9 8.7-1.9 16.6-2.5-1.6 1-7.4 6.4-7.4 13.8 0 9.6 11.6 12.8 14.8 13.7.7-2.2 2.1-5.6 3-7.3-5.5-.1-11.4-2.4-11.4-7 0-6.6 8.6-15.5 18.6-15.4l-1.2-6.7Zm-52 4.8V5.1c.3 0 .7-.4.7-.7 0-.4-.5-.5-.7-.5l-6.4-.4V9H253v5.8h13.3c0 13.3-7.5 19.1-14.7 21.4 2 .6 4 2.8 5 4.3 7-3.3 12.3-9.4 14.4-16.8h7.9c0 3.6-.5 7.2-1.2 8.7-.5 1.3-1 2.3-3.2 2.3l-4.2-.6c.8.8 2.5 2.7 3 6.3 1.5 0 5.8-.1 7.9-2.2 2.9-2.8 3.6-6.5 3.6-20h-12.7l.3-3.4h17.3V9h-15.2Zm-55.2-5.8c-3 4.1-5.5 6-7.8 7.5 2.3 1.1 3.6 2.8 4 3.4 2.6-1.6 6.1-4.8 7.8-6.7.3 0 1 0 1-.6 0-.3-.4-.5-.6-.6l-4.4-3Zm9.3 33c1.1-3.1 2.3-7.4 2.5-11.7 1.5 3.2 2.6 5.1 4.4 7.3a17.3 17.3 0 0 1-7 4.4M241 22.9c-.4 1.1-1 3-2.3 4.9-1-1.5-1.8-2.9-2.7-4.9h5Zm-6.5-9.6V18h-3.2v-4.7h3.2Zm-12.5 9c.4 0 .6-.3.6-.6s-.3-.4-.6-.5l-.6-.4c1.1-1.2 1.4-1.6 3.2-4l.5-.4h.8c.1 7 .1 13.5-3.9 20.8V22.3Zm3.8-13.9v6.7l-4.5-3c-1.4 2-4.7 6.7-10.2 10 .8.8 2 1.8 3.2 4.8l1.7-1.3v14.7h6v-2.2c.8.3 2.4.9 4.4 2.5.4-.5 1-1.1 2-3.8 1.5.9 3 2.4 3.8 3.7 3.4-1.5 6-4 7-5 1.7 1.4 5.1 3.8 8 4.7a12 12 0 0 1 3.2-4.3 29.5 29.5 0 0 1-8-4.4 37 37 0 0 0 5.3-11L245 18h-4.4v-4.7h3c-.3 1.3-1 3-1.2 3.3 2 .4 3.4.8 5 1.9 2-5 2.3-6 3-8.5l-1.5-1.5h-8.3V5c.5-.2.7-.4.7-.8s-.4-.5-.7-.5l-6-.3v5h-8.7Zm-39 4c0 5.1-1.4 9.8-3.1 13.7-.5 1-1.2 2.9-2.2 2.9-.8 0-2.6-2.3-2.6-5.4 0-3.6 3.2-9.6 7.9-11.3m8.9 26.9c3.4-1.5 6.3-3 8.7-5.9a18.7 18.7 0 0 0 4.8-12.4c0-9.6-7.7-15.6-16.5-15.6-11.8 0-19.7 10.1-19.7 18.8 0 7.4 5.8 12.7 9 12.7 4.2 0 10.3-11 11.5-25.7 7.6.6 9.3 6.6 9.3 9.9 0 4.1-2.6 10.9-11.3 12.5 2 2.1 2.9 3.3 4.2 5.7M150.4 5.9v25.4l-.2 3.2 4.3 2.8 4.7-3.7a69 69 0 0 0 11.3-11 18.6 18.6 0 0 1-3-6A43 43 0 0 1 157 27V7.5c.4-.2.8-.4.8-.8s-.4-.4-.8-.4l-6.6-.4Zm-10.3.4v11.8c0 5.1-1.5 7.5-2 8.2-.6 1-2.5 3.6-6.5 6.2 2.5 1.6 3.7 2.3 5.4 4.4 4.9-4.1 10-8.6 10-19.2V8c.2 0 .7-.2.7-.7 0-.5-.5-.5-1-.6l-6.6-.3Zm-23.3 11.6V5.6c.4 0 .8-.2.8-.6s-.5-.5-.8-.5l-6.8-.3v35.5h6.8V20.8c7.2 4 11.2 7.7 12.6 9L133 24c-3-3-8-6.4-14-9.4l-2.3 3.2ZM90.6 9.8l1-2c.5-.1 1-.2 1-.6 0-.3-.3-.5-.5-.6l-5.8-2.8c-.8 2.4-3.4 9.5-13.1 17.7 1.9 1.2 2.7 2 4.9 4.4a55 55 0 0 0 9-10.3h10a38 38 0 0 1-6 11.2c-2 2.5-6.9 7-13 9.5 3.4 2.4 4.5 3.7 5.2 4.6 3.5-1.7 12.4-6.2 18.6-20.1L106 12l-3.3-2.8c-.8.3-1.5.6-2.8.6h-9.2ZM67 5.8c1 0 1.8.8 1.8 1.8S68 9.3 67 9.3s-1.8-.8-1.8-1.7.8-1.8 1.8-1.8m0-2c-2 0-3.8 1.6-3.8 3.8s1.7 3.7 3.8 3.7 3.8-1.7 3.8-3.7S69 3.8 67 3.8M40.5 27.4c.2.2.4.4.6.4.3 0 .4-.2.4-.4l-.1-.5c1.3-2 5.3-7.2 7.1-9.4 1-1 2.3-2.6 3.2-2.6.5 0 1 0 2.7 2 6.4 8.3 11.8 14 15.6 17.9.7-1.1 2.7-4 4.2-5.9-5.9-4.6-10.8-10.4-15.6-16.2-2.8-3.4-4-5-6.6-5-2.3 0-3.8 1.3-7.6 5.5-5.6 6.4-6.3 7-9 9l5 5.2ZM24 12.4a33.9 33.9 0 0 1-21 21c2.1 1.9 3 3 4.5 5.5A46.6 46.6 0 0 0 23 27c6 4.7 9.3 9.4 10.8 11.5l4.8-5.5c-3-3.6-10.3-9.7-12-11 2-3 3.6-6.5 5-9.8a12 12 0 0 1 1.6-2.6l-3.1-3.4c-.7.2-2.2.3-2.8.3H6.8v6H24Z"/></g></svg>
