<?xml version="1.0" encoding="UTF-8"?>
<svg id="_レイヤー_2" data-name="レイヤー 2" xmlns="http://www.w3.org/2000/svg" viewBox="0 0 320.99 35.78">
  <defs>
    <style>
      .cls-1 {
        fill: #231815;
        stroke-width: 0px;
      }
    </style>
  </defs>
  <g id="_デザイン" data-name="デザイン">
    <path class="cls-1" d="m319.23,1.19c-11.29,2.98-27.25,3.64-29.85,3.64-1.03,0-1.76-.04-2.49-.11l.73,6.16c3.71-.96,15-2.26,17.45-2.41-5.13,3.94-8.04,8.34-8.04,13.47,0,8.69,8.15,12.02,13.97,13.32.34-1.19.92-2.98,2.41-5.78-8.11-.61-11.25-3.52-11.25-8,0-7,8.49-14.85,18.06-14.81l-.99-5.47Zm-4.09,10.71c1.45,1.61,2.18,2.53,3.37,4.32.73-.73,1.65-1.61,2.49-2.18-.77-1.11-2.41-3.14-3.48-4.06l-2.37,1.91Zm-3.79,3.02c1.3,1.45,1.95,2.33,3.25,4.25.23-.23,1.61-1.53,2.56-2.22-.88-1.3-2.79-3.52-3.33-4.13l-2.49,2.1Zm-42.73-9.03V1.76c.35-.15.77-.34.77-.69,0-.42-.54-.5-.77-.5l-5.09-.31v5.63h-14.93v4.55h13.16c-.08,3.79-.31,16.65-14.16,21.43,1.53.53,3.14,2.26,3.94,3.52,9.99-4.94,12.9-12.97,13.89-16.46h8.53c0,11.83-2.79,11.83-4.59,11.83-1.3,0-3.1-.35-3.79-.46.77.88,1.91,2.26,2.3,5.09,7.61.04,10.83-1.61,10.83-20.86h-12.4c.27-2.3.31-3.44.31-4.09h16.99v-4.55h-15ZM217.14,0c-1.61,2.18-4.25,5.17-7.85,7.42,1.11.46,2.99,1.76,3.71,2.56,3.02-1.99,5.86-4.86,7.23-6.54.5.04,1.03.04,1.03-.46,0-.23-.11-.34-.54-.61l-3.6-2.37Zm1.95,8.46c-1.38,2.07-4.44,6.62-10.14,10.03,1.11.8,1.91,1.65,2.95,3.64.8-.61,1.3-.99,2.22-1.76v14.85h4.82v-17.37c.38-.15.61-.27.61-.54s-.15-.34-.57-.54l-.65-.31c.42-.42,1.38-1.42,1.91-2.11,1.45-1.84,1.61-2.07,1.84-2.33.76.04,1.22.04,1.22-.46,0-.27-.15-.42-.34-.54l-3.86-2.56Zm18.94,9.83c-.54,1.53-1.3,3.83-3.02,6.08-1.49-1.91-2.37-3.71-3.4-6.08h6.43Zm-6.39-9.22v5.32h-3.94c0-.5.04-5.17.04-5.32h3.9Zm-8.38-3.87c.12,1.11.12,8.19.12,10.06,0,10.22-2.26,14.69-4.21,18.1,1.45.38,2.76,1.11,3.9,2.07,1.57-2.1,4.06-8.27,4.51-15.96,1.03,2.49,2.41,5.36,4.71,8.04-2.14,2.07-3.83,3.25-7.31,4.67,1.84,1.07,2.98,2.56,3.41,3.25,3.21-1.42,4.82-2.98,6.85-4.97,1.15.96,4.36,3.44,7.85,4.78.19-.27,1.42-2.26,2.75-3.52-1.95-.77-4.94-2.03-7.88-4.4,3.21-4.29,4.59-8.11,5.43-10.87l-2.33-2.07h-4.67v-5.32h4.1c-.35,1.3-.57,1.84-1.38,3.71,1.76.34,2.45.57,4.02,1.53.76-1.84,1.8-4.32,2.79-7.81l-1.34-1.3h-8.19V1.57c.61-.31.77-.35.77-.69,0-.42-.54-.5-.77-.5l-4.74-.27v5.09h-8.38Zm-36.73,2.68c-.08,1.76-.15,6.73-2.87,13.28-.61,1.53-1.68,4.13-2.79,4.13-1.19,0-2.91-2.56-2.91-5.82,0-4.06,3.37-9.99,8.57-11.59m7.19,26.1c2.83-1.11,6.01-2.49,8.61-5.43,1.95-2.18,4.51-5.89,4.51-11.59,0-9.15-7.31-14.66-15.46-14.66-10.91,0-18.29,9.38-18.29,17.53,0,6.85,5.17,11.67,8.11,11.67,3.94,0,9.45-10.26,10.75-24.53,6.89.35,9.76,5.55,9.76,9.99,0,4.02-2.33,10.75-11.36,12.47,1.49,1.65,2.22,2.64,3.37,4.55M151.76,2.68v24.38c0,1.03-.08,1.99-.15,3.02l3.52,2.3c.99-.84,1.34-1.11,4.51-3.41,3.6-2.56,8.42-7.31,10.95-10.75-1.23-1.57-1.76-2.53-2.56-4.74-2.56,3.67-6.39,7.81-10.95,10.68V4.09c.35-.19.73-.34.73-.73s-.31-.38-.73-.42l-5.32-.27Zm-9.53.35v11.21c0,5.28-1.03,9.61-8.3,14.24,2.95,1.91,3.71,2.83,4.33,3.56,5.2-4.06,9.53-8.42,9.53-18.14V4.52c.31-.11.69-.31.69-.73,0-.46-.5-.46-.88-.5l-5.36-.27Zm-25.72,10.75V2.3c.23-.04.73-.15.73-.57,0-.34-.34-.38-.73-.42l-5.43-.31v33.56h5.43V15.88c2.68,1.42,7.42,4.09,12.09,8.57,1.64-1.95,2.18-2.6,3.67-4.17-3.22-3.18-8.46-6.58-13.82-9.26l-1.95,2.76Zm-26.27-7.35c.54-1.03.84-1.61,1.3-2.52.23,0,.92-.11.92-.5,0-.34-.35-.5-.54-.57l-4.71-2.26c-2.91,8.07-8.76,13.89-12.82,17.22,1.72,1.15,2.26,1.72,3.98,3.52,3.83-3.44,6.43-6.43,8.99-10.18h10.64c-1.8,5.01-5.43,15.23-19.1,20.9,2.68,2.03,3.41,2.87,4.1,3.75,2.95-1.38,12.36-5.78,18.33-19.06,1.26-2.83,3.29-7.35,3.94-8.46l-2.76-2.41c-.69.31-1.38.57-2.64.57h-9.64Zm-50.28,16.38c.23.27.34.38.54.38.5,0,.5-.46.5-.88,1.42-2.1,5.17-6.7,6.81-8.65,1.88-2.22,2.56-2.95,3.48-2.95,1.03,0,1.26.31,4.17,3.9,6.39,7.92,10.26,11.86,13.58,15.08.73-1.15,2.45-3.6,3.44-4.67-4.36-3.67-7.96-7-13.13-13.43-4.36-5.36-5.59-6.47-7.88-6.47s-3.79,1.19-8.27,6.54c-.99,1.22-4.21,5.05-7.08,7.16l3.83,3.98ZM65.86,2.18c.96,0,1.76.77,1.76,1.76s-.8,1.8-1.76,1.8-1.84-.77-1.8-1.8c0-.99.84-1.76,1.8-1.76m0-1.76c-1.91,0-3.56,1.49-3.56,3.52s1.65,3.56,3.56,3.56,3.56-1.53,3.56-3.56-1.65-3.52-3.56-3.52m-45.08,7.65c-1.65,4.36-3.1,7.96-7.23,12.36C7.88,26.52,2.3,28.59,0,29.39c1.8,1.53,2.45,2.41,3.63,4.48,6.47-2.76,12.67-8.61,15.31-11.94,5.63,4.36,8.8,8.53,10.87,11.4.46-.54,2.6-2.91,3.94-4.36-3.02-3.67-9.03-8.88-11.94-11.06,2.45-3.98,3.33-6.01,4.94-9.76.27-.57.69-1.45,1.45-2.45l-2.6-2.79c-.61.23-2.03.31-2.64.31H3.52v4.86h17.26Z"/>
  </g>
</svg>