<?xml version="1.0" encoding="UTF-8"?>
<svg id="_レイヤー_2" data-name="レイヤー 2" xmlns="http://www.w3.org/2000/svg" viewBox="0 0 576.64 342.98">
  <defs>
    <style>
      .cls-1 {
        fill: #231815;
        stroke-width: 0px;
      }
    </style>
  </defs>
  <g id="_デザイン" data-name="デザイン">
    <g>
      <path class="cls-1" d="m437.92,292.68l10.96-37.91c1.57-5.48,2.67-9.5,3.22-12.15h.18c-.37,5.21-.74,15.07-.74,23.75v26.31h10.78v-62.12h-16.77l-9.4,34.26c-1.38,5.21-2.95,10.6-3.5,13.06h-.18c-.46-2.74-1.75-7.12-3.41-12.97l-9.95-34.35h-16.49v62.12h10.78v-26.31c0-11.6-.37-19.37-.55-22.29h.18s1.01,4.48,2.86,10.87l10.96,37.73h11.06Zm-70.22-9.04c-5.9,0-10.04-1.92-11.98-6.4-1.01-2.1-1.38-4.38-1.38-10.51v-36.18h-10.96v36.36c0,9.04.92,13.25,3.23,17.17,4.15,6.76,11.88,9.68,21.1,9.68s16.95-2.92,21.1-9.68c2.3-3.93,3.23-8.13,3.23-17.17v-36.36h-10.96v36.18c0,6.12-.37,8.4-1.38,10.51-1.93,4.48-6.08,6.4-11.98,6.4m-70.81-43.39h11.89c4.51,0,6.91.37,8.85,1.19,2.76,1.19,4.42,4.2,4.42,7.58s-1.66,6.49-4.42,7.77c-1.93.82-4.33,1.19-8.85,1.19h-11.89v-17.72Zm11.33,27.59l14.56,24.85h13.17l-15.66-25.94c1.48-.55,3.41-1.28,4.88-2.19,5.07-3.38,8.29-8.4,8.29-15.26,0-7.58-3.41-12.7-8.94-15.89-4.79-2.74-10.41-2.83-15.75-2.83h-22.94v62.12h11.06v-24.85h11.33Zm-79.14-27.5h18.33v52.35h11.06v-52.35h18.24v-9.77h-47.63v9.77Zm-14.74,33.71c-2.95,6.03-8.01,9.59-15.11,9.59-11.24,0-17.69-8.5-17.69-22.02s6.63-22.29,17.69-22.29c7.28,0,12.25,3.84,15.29,10.32l9.67-5.94c-3.13-5.39-10.41-14.25-24.97-14.25-18.33,0-29.85,13.15-29.85,32.16s10.6,32.16,29.85,32.16c15.39,0,22.76-9.59,25.61-15.35l-10.5-4.38Zm-51.65-33.71v-9.77h-43.85v62.12h46.16v-9.77h-35.1v-17.45h29.76v-9.78h-29.76v-15.35h32.8Zm-100.42,52.35h11.06v-24.21h9.86c7.74,0,15.02-.37,20.08-4.66,3.87-3.29,6.17-8.59,6.17-14.43s-2.3-10.87-6.17-14.16c-5.07-4.29-12.35-4.66-20.08-4.66h-20.91v62.12Zm11.06-52.44h11.42c4.42,0,6.91.37,8.75,1.19,2.76,1.28,4.51,4.48,4.51,7.95s-1.75,6.67-4.51,8.04c-1.84.82-4.33,1.19-8.75,1.19h-11.42v-18.36Zm-21.52-.46c-3.69-4.02-11.33-10.32-24.32-10.32s-23.68,7.4-23.68,18.45,8.57,15.62,18.79,17.81l8.38,1.83c6.36,1.37,10.69,3.2,10.69,8.04s-4.33,8.41-12.72,8.41c-8.84,0-15.75-4.84-18.61-9.5l-9.21,6.58c4.33,6.03,13.64,12.7,27.27,12.7,15.66,0,25.15-7.67,25.15-19.19s-8.48-15.07-20.18-17.72l-7.56-1.64c-7.09-1.55-10.13-3.29-10.13-7.86s4.24-8.31,11.52-8.31,12.71,3.2,16.22,7.49l8.38-6.76Z"/>
      <path class="cls-1" d="m316.13,207.17c11.7,0,18.98,0,25.7-6.49,5.8-5.48,9.12-14.34,9.12-24.76,0-12.15-4.88-21.56-11.7-26.49-6.36-4.39-12.71-4.39-22.85-4.39h-17.51v62.12h17.23Zm-6.08-51.98h6.08c8.2,0,12.9.46,16.58,3.65,4.24,3.65,6.45,9.87,6.45,17.45s-2.67,14.16-5.62,17.17c-3.87,3.65-9.21,3.75-16.21,3.75h-7.28v-42.02Zm-61.75-10.14h-10.32v62.12h10.96v-20.74c0-10.42-.09-20.1-.18-23.02.09,0,2.03,3.38,3.96,6.39l24.69,37.36h10.32v-62.12h-10.96v20.83c0,8.77.18,20.28.18,22.29-.83-1.37-3.41-5.48-4.79-7.58l-23.86-35.54Zm-67.13,31.06c0-13.52,6.63-22.38,17.6-22.38s17.6,8.86,17.6,22.38-6.45,22.2-17.6,22.2-17.6-8.68-17.6-22.2m-12.07,0c0,18.91,10.69,32.16,29.67,32.16s29.67-13.25,29.67-32.16-11.42-32.16-29.67-32.16-29.67,13.16-29.67,32.16m-23.77,5.66l24.05-36.72h-12.71l-16.31,26.58-16.03-26.58h-12.81l22.76,36.72v25.4h11.06v-25.4Zm-41.49-26.95v-9.77h-43.85v62.12h46.16v-9.77h-35.1v-17.45h29.76v-9.77h-29.76v-15.35h32.8Zm-64.69,7.67c0,3.02-1.29,5.3-3.41,6.67-2.39,1.46-6.08,1.37-8.84,1.37h-12.71v-15.99h12.71c4.42,0,6.26.27,8.01,1.1,2.4,1.1,4.24,3.65,4.24,6.85m-24.97,16.9h13.18c5.07,0,7.74.18,9.95,1.55,2.21,1.37,3.78,4.02,3.78,7.49s-1.57,6.12-3.78,7.49c-2.12,1.19-4.51,1.55-9.95,1.55h-13.18v-18.09Zm14.93,27.77c8.11,0,11.42-1,14.46-2.65,5.25-2.83,8.57-8.13,8.57-15.07,0-7.77-4.7-12.88-10.41-15.16,4.7-2.01,8.29-6.76,8.29-13.06s-3.23-11.42-8.2-13.89c-2.95-1.46-6.26-2.28-14.1-2.28H3.12v62.12h25.98Z"/>
      <path class="cls-1" d="m552.23,121.67l10.96-37.91c1.57-5.48,2.67-9.5,3.22-12.15h.18c-.37,5.21-.74,15.07-.74,23.75v26.31h10.78v-62.12h-16.77l-9.4,34.26c-1.38,5.21-2.95,10.6-3.5,13.06h-.18c-.46-2.74-1.75-7.13-3.41-12.97l-9.95-34.35h-16.49v62.12h10.78v-26.31c0-11.6-.37-19.37-.55-22.29h.18s1.01,4.48,2.86,10.87l10.96,37.73h11.05Zm-81.99-62.12v62.12h38.05v-10.05h-26.9v-52.07h-11.15Zm-26.13,38.28h-16.4l5.9-19.09c1.01-2.92,1.75-5.48,2.3-7.77h.09c.65,2.38,1.29,5.02,2.3,7.95l5.8,18.91Zm-19.53,9.77h22.76l4.79,14.07h11.88l-21.56-62.12h-12.53l-21.74,62.12h11.52l4.88-14.07Zm-24.26-38.28v-9.77h-43.85v62.12h46.16v-9.77h-35.1v-17.45h29.76v-9.77h-29.76v-15.35h32.8Zm-89.29-.09h11.89c4.51,0,6.91.37,8.85,1.19,2.76,1.19,4.42,4.2,4.42,7.58s-1.66,6.49-4.42,7.77c-1.94.82-4.33,1.19-8.85,1.19h-11.89v-17.72Zm11.33,27.59l14.56,24.85h13.17l-15.66-25.94c1.47-.55,3.41-1.28,4.88-2.19,5.07-3.38,8.29-8.4,8.29-15.26,0-7.58-3.41-12.7-8.94-15.9-4.79-2.74-10.41-2.83-15.75-2.83h-22.94v62.12h11.05v-24.85h11.33Zm-56.92-27.5v-9.77h-43.85v62.12h46.16v-9.77h-35.1v-17.45h29.76v-9.77h-29.76v-15.35h32.8Zm-66.08,25.12l-.18,27.22h11.24v-62.12h-11.06v25.12h-28.01v-25.12h-11.06v62.12h11.06v-27.22h28.01Zm-95.82-25.12h18.33v52.34h11.06v-52.34h18.24v-9.77h-47.63v9.77Zm-67.88-9.77h-10.32v62.12h10.96v-20.74c0-10.42-.09-20.1-.18-23.02.09,0,2.03,3.38,3.96,6.39l24.69,37.36h10.32v-62.12h-10.96v20.83c0,8.77.18,20.28.18,22.29-.83-1.37-3.41-5.48-4.79-7.58l-23.86-35.54Zm-19.88,0H4.73v62.12h11.06v-62.12Z"/>
      <path class="cls-1" d="m393.95,313.4h-4.83v29.06h5.13v-9.7c0-4.87-.04-9.4-.09-10.77.04,0,.95,1.58,1.85,2.99l11.55,17.48h4.83v-29.06h-5.13v9.75c0,4.1.09,9.49.09,10.43-.39-.64-1.6-2.56-2.24-3.55l-11.17-16.63Zm-31.41,14.53c0-6.33,3.1-10.47,8.23-10.47s8.23,4.15,8.23,10.47-3.02,10.39-8.23,10.39-8.23-4.06-8.23-10.39m-5.65,0c0,8.85,5,15.05,13.88,15.05s13.88-6.2,13.88-15.05-5.35-15.04-13.88-15.04-13.88,6.15-13.88,15.04m-25.71,14.53h5.17v-11.33h4.61c3.62,0,7.03-.17,9.4-2.18,1.81-1.54,2.89-4.02,2.89-6.75s-1.08-5.09-2.89-6.62c-2.37-2.01-5.78-2.18-9.4-2.18h-9.79v29.06Zm5.17-24.53h5.34c2.07,0,3.23.17,4.1.56,1.29.6,2.11,2.09,2.11,3.72s-.82,3.12-2.11,3.76c-.86.38-2.03.56-4.1.56h-5.34v-8.59Zm-18.15,13.38h-7.67l2.76-8.93c.47-1.37.82-2.56,1.08-3.63h.04c.3,1.11.6,2.35,1.08,3.72l2.71,8.85Zm-9.14,4.57h10.65l2.24,6.58h5.56l-10.09-29.06h-5.86l-10.17,29.06h5.39l2.29-6.58Zm-29.24-17.91h8.58v24.49h5.17v-24.49h8.54v-4.57h-22.29v4.57Zm-25.6,0h8.58v24.49h5.17v-24.49h8.54v-4.57h-22.29v4.57Zm-7.89,13.34h-7.67l2.76-8.93c.47-1.37.82-2.56,1.08-3.63h.04c.3,1.11.6,2.35,1.08,3.72l2.72,8.85Zm-9.14,4.57h10.65l2.24,6.58h5.56l-10.09-29.06h-5.86l-10.17,29.06h5.39l2.28-6.58Zm-10.22-18.17c-1.72-1.88-5.3-4.83-11.38-4.83s-11.08,3.46-11.08,8.63,4.01,7.31,8.79,8.33l3.92.85c2.98.64,5,1.5,5,3.76s-2.03,3.93-5.95,3.93c-4.14,0-7.37-2.26-8.71-4.44l-4.31,3.08c2.03,2.82,6.38,5.94,12.76,5.94,7.33,0,11.77-3.59,11.77-8.98s-3.97-7.05-9.44-8.29l-3.54-.77c-3.32-.73-4.74-1.54-4.74-3.68s1.98-3.89,5.39-3.89,5.95,1.5,7.59,3.5l3.92-3.16Zm-45.18,13.59h-7.67l2.76-8.93c.47-1.37.82-2.56,1.08-3.63h.04c.3,1.11.6,2.35,1.08,3.72l2.71,8.85Zm-9.14,4.57h10.65l2.24,6.58h5.56l-10.09-29.06h-5.86l-10.17,29.06h5.39l2.29-6.58Zm-29.74-22.48h-4.83v29.06h5.13v-9.7c0-4.87-.04-9.4-.09-10.77.04,0,.95,1.58,1.85,2.99l11.55,17.48h4.83v-29.06h-5.13v9.75c0,4.1.09,9.49.09,10.43-.39-.64-1.6-2.56-2.24-3.55l-11.16-16.63Zm-10.86,4.57v-4.57h-20.52v29.06h21.6v-4.57h-16.42v-8.16h13.92v-4.57h-13.92v-7.18h15.35Zm-26.55,0v-4.57h-20.52v29.06h21.6v-4.57h-16.42v-8.16h13.92v-4.57h-13.92v-7.18h15.35Zm-43.28-.04h5.56c2.11,0,3.23.17,4.14.56,1.29.56,2.07,1.97,2.07,3.55s-.78,3.03-2.07,3.63c-.91.39-2.03.56-4.14.56h-5.56v-8.29Zm5.3,12.91l6.81,11.63h6.16l-7.33-12.14c.69-.26,1.6-.6,2.28-1.03,2.37-1.58,3.88-3.93,3.88-7.14,0-3.55-1.6-5.94-4.18-7.44-2.24-1.28-4.87-1.33-7.37-1.33h-10.73v29.06h5.17v-11.63h5.3Zm-24.2.47h-7.67l2.76-8.93c.47-1.37.82-2.56,1.08-3.63h.04c.3,1.11.6,2.35,1.08,3.72l2.72,8.85Zm-9.14,4.57h10.65l2.24,6.58h5.56l-10.09-29.06h-5.86l-10.17,29.06h5.39l2.29-6.58Zm-10.49-18.17c-1.72-1.88-5.3-4.83-11.38-4.83s-11.08,3.46-11.08,8.63,4.01,7.31,8.79,8.33l3.92.85c2.97.64,5,1.5,5,3.76s-2.03,3.93-5.95,3.93c-4.14,0-7.37-2.26-8.71-4.44l-4.31,3.08c2.03,2.82,6.38,5.94,12.76,5.94,7.33,0,11.77-3.59,11.77-8.98s-3.97-7.05-9.44-8.29l-3.54-.77c-3.32-.73-4.74-1.54-4.74-3.68s1.98-3.89,5.39-3.89,5.95,1.5,7.59,3.5l3.92-3.16Z"/>
      <path class="cls-1" d="m531.04,32.3c.14.27.24.34.38.34.22,0,.34-.27.34-.53,3.88-1.37,7.74-3.71,9.93-5.37,3.88-2.92,6.1-5.95,7.49-8.02-1.04-1.04-1.45-1.64-2.48-3.28-4.29,6.89-11.06,11.54-17.93,12.96l2.27,3.9Zm-2.68-17.18c1.21.55,3.49,1.64,6.07,3.85,1.59-2.31,1.76-2.58,2.34-3.28-.72-.67-1.98-1.88-6.02-3.95l-2.39,3.37Zm-9.01,8.07c1.57,1.54,3.47,3.9,4.68,6.14,1.08-1.04,1.66-1.52,2.96-2.6-1.45-2.43-3.86-4.87-4.82-5.81l-2.82,2.26Zm-9.64-1.88c-1.33,2.63-2.82,4.46-5.11,6.22.92.55,2.34,1.57,3.2,2.43,1.64-1.42,3.74-4.17,4.84-6.05.14,0,.65.05.65-.27,0-.17-.12-.27-.39-.41l-3.2-1.93Zm4.24-4.84h-7.91v3.49h7.91v7.59c0,.6,0,1.25-.92,1.25-.67,0-1.33-.12-1.98-.24.7,1.47,1.01,2.26,1.25,3.76.41.05.99.12,1.64.12,4,0,4-2.31,4-3.88v-8.6h7.95v-3.49h-7.95v-4.22c.14-.1.34-.22.34-.41,0-.24-.24-.27-.36-.27l-3.98-.12v5.01Zm10.75-4.89c.58,0,1.06.48,1.06,1.06s-.46,1.11-1.06,1.08c-.58,0-1.06-.48-1.06-1.08s.48-1.06,1.06-1.06m0-1.2c-1.23,0-2.27,1.01-2.27,2.26s1.01,2.26,2.27,2.26,2.27-1.01,2.27-2.26-1.01-2.26-2.27-2.26m-34.03,11.78c.92.53,2.31,1.37,3.9,2.55-1.71,1.88-5.42,4.17-8.6,5.01.99.94,1.93,2.05,2.63,3.23,2-.77,5.61-2.29,8.84-5.81.96.94,1.54,1.66,2.07,2.39.41-.63,1.69-2.39,2.34-3.18-.31-.46-.75-1.06-2.1-2.24,1.28-1.98,1.86-3.35,3.4-7.01.15-.34.17-.36.51-1.01l-1.71-1.47c-.39.12-.77.24-1.66.24h-5.25c.43-.72.72-1.25,1.16-2.05.34-.02.58-.07.58-.29,0-.19-.17-.24-.43-.34l-3.76-1.23c-1.83,4.36-4.41,7.81-7.86,10.12,1.33.94,1.47,1.08,3.04,2.53,1.95-1.52,3.59-3.42,5.06-5.4h5.71c-.24.7-.7,1.95-1.78,3.66-1.04-.72-2.1-1.37-3.78-2.31l-2.29,2.6Zm-10.87-5.9c-1.04,7.66-4.12,10.94-10.29,13.32,1.28,1.04,2,2.22,2.29,2.72,5.59-2.41,9.47-5.78,11.49-14.33.12,0,.46-.02.46-.27,0-.22-.19-.29-.46-.36l-3.49-1.08Zm-8.39.87c.65,1.13,1.64,3.28,2.1,4.51.7-.36,1.28-.6,3.04-1.25-.58-1.95-1.16-3.18-1.98-4.53l-3.16,1.28Zm-4.87,1.13c.79,1.47,1.61,3.04,2.27,4.6,1.08-.72,2.46-1.28,3.06-1.49-.46-1.11-1.47-3.2-2.22-4.41l-3.11,1.3Zm-10.22-2.02h-4.17v-3.78c.19-.12.39-.22.39-.39,0-.27-.29-.27-.51-.29l-3.78-.22v4.67h-4.58v3.76h4.58v5.37h3.9v-5.37h4.17c-.1,1.95-.17,3.49-.87,5.06-.29.63-1.69,3.47-5.91,4.96.6.46,2.03,1.47,2.97,2.99,3.3-1.32,6-4.38,7.11-7.56.22-.63.63-1.81.75-5.44h4.22v-3.76h-4.19v-3.93c.12-.05.36-.17.36-.43,0-.17-.17-.24-.36-.24l-4.07-.22v4.82Zm-17.88,2.92c-1.61,0-2.94,1.3-2.94,2.94s1.33,2.94,2.94,2.94,2.94-1.33,2.94-2.94-1.35-2.94-2.94-2.94m-16.87-2.58h-9.3v3.59h9.28c-.17,2.63-.41,6.79-7.45,9.85,1.47.96,2.63,2.36,3.06,2.92,6.72-3.4,8.22-8.7,8.46-12.77h7.59v-3.59h-7.57v-4.29c.12-.05.51-.19.51-.46s-.29-.29-.51-.29l-4.07-.14v5.18Zm-32.03,7.59h20.94v-4.09h-20.94v4.09Zm-6.34-12.89v8.75c0,2.46-.14,7.28-7.69,9.9,1.28.89,2.14,2.1,2.51,3.08,3.3-1.01,5.98-3.61,7.3-5.56,1.47-2.17,1.93-4.82,1.93-7.44v-7.85c.17-.07.46-.19.46-.48,0-.19-.22-.24-.46-.24l-4.05-.15Zm-11.01.46v12.6h4.02v-11.78c.17-.07.46-.22.46-.46,0-.22-.17-.24-.46-.24l-4.02-.12Zm-10.43,4.5h-4.17v-3.78c.19-.12.39-.22.39-.39,0-.27-.29-.27-.51-.29l-3.78-.22v4.67h-4.58v3.76h4.58v5.37h3.9v-5.37h4.17c-.1,1.95-.17,3.49-.87,5.06-.29.63-1.69,3.47-5.9,4.96.6.46,2.02,1.47,2.96,2.99,3.3-1.32,6-4.38,7.11-7.56.22-.63.63-1.81.75-5.44h4.22v-3.76h-4.19v-3.93c.12-.05.36-.17.36-.43,0-.17-.17-.24-.36-.24l-4.07-.22v4.82ZM340.39,0h-1.61v44.17h1.61V0Zm-22.33,18.83c1.65,1.81,2.05,2.33,3.57,4.54,1.41-1.16,1.97-1.61,3.09-2.41-.8-1.24-2.53-3.25-3.73-4.3l-2.93,2.17Zm4.22-2.85c1.65,1.81,2.09,2.33,3.57,4.54,1.25-1.12,1.93-1.73,2.93-2.49-.8-1.24-2.45-3.21-3.57-4.22l-2.93,2.17Zm4.26-11.76c-3.78,1.2-10.28,2.29-16.11,2.93-8.23.92-11.73.92-17.87.92l.92,7.55c3.9-.88,8.76-1.89,16.63-2.53-1.65,1.04-7.39,6.38-7.39,13.81,0,9.6,11.53,12.81,14.78,13.69.68-2.21,2.13-5.62,3.01-7.31-5.46-.12-11.37-2.41-11.37-7.07,0-6.5,8.6-15.42,18.52-15.26l-1.12-6.75Zm-52.05,4.82v-3.9c.28-.12.72-.4.72-.72,0-.44-.48-.56-.72-.56l-6.43-.36v5.54h-15.1v5.74h13.3c0,13.33-7.47,19.15-14.62,21.4,1.97.6,3.98,2.81,4.94,4.34,6.99-3.29,12.29-9.44,14.46-16.86h7.83c0,3.69-.48,7.23-1.12,8.75-.52,1.33-1.08,2.33-3.21,2.33-.4,0-3.13-.44-4.22-.6.76.76,2.53,2.65,2.97,6.3,1.49.04,5.86-.16,7.91-2.21,2.85-2.85,3.62-6.54,3.62-20.12h-12.69c.08-.8.2-1.85.24-3.33h17.31v-5.74h-15.18Zm-55.19-5.82c-3.01,4.1-5.54,6.06-7.75,7.47,2.21,1.16,3.54,2.81,4.02,3.41,2.49-1.57,6.07-4.82,7.71-6.67.36,0,1-.08,1-.6,0-.28-.36-.52-.56-.64l-4.42-2.97Zm9.28,32.96c1.12-3.09,2.29-7.39,2.53-11.68,1.49,3.17,2.61,5.14,4.34,7.27-2.13,2.13-3.82,3.25-6.87,4.42m12.37-13.29c-.4,1.12-1,3.01-2.21,4.86-1.04-1.41-1.85-2.85-2.73-4.86h4.94Zm-6.43-9.64v4.78h-3.21c.04-3.25.04-3.61.04-4.78h3.17Zm-12.49,9.03c.32-.08.56-.32.56-.56s-.32-.4-.56-.56l-.68-.4c1.16-1.2,1.45-1.57,3.29-3.89.16-.2.36-.36.48-.52.28,0,.52,0,.8-.04.08,7.11.12,13.53-3.9,20.88v-14.9Zm3.74-13.85c.04,2.41.12,4.62.12,6.67l-4.58-2.97c-1.45,2.05-4.7,6.71-10.24,10.04.88.72,2.05,1.73,3.25,4.74.72-.56.88-.64,1.65-1.29v14.7h6.07v-2.21c.76.24,2.41.84,4.38,2.49.36-.48.92-1.12,1.97-3.85,1.53.92,3.01,2.45,3.86,3.69,3.37-1.41,5.95-4.02,6.87-4.98,1.77,1.44,5.18,3.81,7.99,4.74.56-1.32,1.37-2.61,3.25-4.34-3.41-1.33-5.46-2.49-7.95-4.38,3.37-4.82,4.74-9.03,5.3-10.96l-2.81-2.49h-4.42v-4.78h3.05c-.36,1.29-1.09,3.09-1.21,3.33,1.93.36,3.37.84,5.02,1.89,1.93-5.02,2.25-5.9,3.01-8.51l-1.53-1.52h-8.35v-3.41c.48-.2.72-.48.72-.8s-.4-.52-.72-.52l-5.94-.32v5.06h-8.76Zm-39,3.89c-.04,5.22-1.37,9.84-3.09,13.81-.44,1.04-1.2,2.85-2.17,2.85-.84,0-2.57-2.33-2.57-5.42,0-3.61,3.17-9.52,7.83-11.24m8.92,26.82c3.41-1.49,6.27-2.97,8.72-5.82,4.58-5.42,4.74-10.56,4.74-12.41,0-9.6-7.67-15.58-16.47-15.58-11.81,0-19.68,10.08-19.68,18.71,0,7.43,5.82,12.73,8.96,12.73,4.26,0,10.32-10.96,11.57-25.66,7.55.6,9.28,6.58,9.28,9.84,0,4.18-2.57,10.92-11.29,12.53,1.97,2.13,2.85,3.33,4.18,5.66M150.37,5.94v25.38c0,1.12-.08,2.13-.16,3.21l4.26,2.73c1.57-1.2,3.13-2.45,4.74-3.61,3.9-2.85,8.96-8.11,11.29-11.12-1.61-2.21-2.37-3.73-3.09-6.02-1.57,2.21-5.46,7.27-10.4,10.52V7.47c.36-.16.76-.36.76-.72,0-.4-.32-.4-.76-.44l-6.63-.36Zm-10.28.36v11.8c0,5.14-1.49,7.47-1.97,8.23-.64,1.04-2.53,3.57-6.51,6.18,2.49,1.61,3.65,2.33,5.42,4.38,4.82-4.13,9.96-8.59,9.96-19.15V7.95c.16-.08.68-.28.68-.76,0-.52-.48-.52-.92-.56l-6.67-.32Zm-23.26,11.6V5.62c.32-.08.76-.24.76-.64s-.48-.44-.76-.44l-6.79-.32v35.45h6.79v-18.83c7.19,3.94,11.21,7.67,12.53,8.91,1.77-2.73,1.97-3.01,3.78-5.62-2.97-2.97-8.07-6.42-14.02-9.44l-2.29,3.21Zm-26.19-8.11c.28-.48.4-.8,1.04-2.05.4-.04.96-.16.96-.56,0-.32-.36-.52-.52-.6l-5.78-2.81c-.88,2.41-3.41,9.48-13.17,17.75,1.93,1.21,2.73,2.05,4.9,4.34,3.41-3.05,6.47-6.46,9.04-10.28h10.04c-.88,2.45-2.73,7.31-5.99,11.24-2.09,2.53-6.95,6.95-13.05,9.52,3.37,2.37,4.5,3.69,5.18,4.58,3.53-1.77,12.45-6.22,18.64-20.12.92-2.05,3.37-7.55,4.1-8.75l-3.33-2.85c-.8.32-1.53.6-2.85.6h-9.2Zm-23.62-3.98c.96,0,1.77.8,1.77,1.77s-.8,1.77-1.77,1.77-1.77-.8-1.77-1.77.8-1.77,1.77-1.77m0-2.01c-2.09,0-3.78,1.65-3.78,3.77s1.69,3.77,3.78,3.77,3.77-1.69,3.77-3.77-1.73-3.77-3.77-3.77m-26.55,23.65c.2.2.4.4.68.4.24,0,.36-.24.36-.44s-.08-.4-.12-.52c1.29-1.97,5.26-7.15,7.15-9.36.96-1.12,2.25-2.61,3.17-2.61.48,0,1.04,0,2.65,2.05,6.43,8.19,11.85,13.89,15.62,17.79.76-1.08,2.73-3.94,4.26-5.86-5.94-4.62-10.88-10.36-15.66-16.18-2.81-3.41-4.06-4.94-6.63-4.94-2.29,0-3.78,1.25-7.55,5.46-5.62,6.34-6.27,7.03-8.96,8.99l5.02,5.22Zm-16.39-15.02c-1.81,4.62-3.45,8.55-8.03,12.97-3.9,3.81-7.87,6.18-13.05,8.03,2.21,1.85,3.05,2.97,4.58,5.5,5.26-2.21,11.57-7.39,15.42-12,5.94,4.7,9.32,9.4,10.8,11.44,1.33-1.53,3.49-3.94,4.82-5.46-3.01-3.61-10.36-9.72-12.05-11,2.01-3.09,3.61-6.46,5.1-9.84.6-1.33,1.21-2.17,1.53-2.57l-3.13-3.41c-.68.24-2.13.32-2.77.32H6.78v6.02h17.31Z"/>
    </g>
  </g>
</svg>