<?xml version="1.0" encoding="UTF-8"?>
<svg id="_レイヤー_2" data-name="レイヤー 2" xmlns="http://www.w3.org/2000/svg" viewBox="0 0 395.14 30.98">
  <defs>
    <style>
      .cls-1 {
        fill: #231815;
        stroke-width: 0px;
      }
    </style>
  </defs>
  <g id="_デザイン" data-name="デザイン">
    <g>
      <path class="cls-1" d="m383.48,30.45l5.24-18.26c.75-2.64,1.28-4.58,1.54-5.85h.09c-.18,2.51-.35,7.26-.35,11.44v12.67h5.15V.53h-8.01l-4.49,16.5c-.66,2.51-1.41,5.1-1.67,6.29h-.09c-.22-1.32-.84-3.43-1.63-6.25l-4.75-16.55h-7.88v29.93h5.15v-12.67c0-5.59-.18-9.33-.26-10.74h.09s.48,2.16,1.36,5.24l5.24,18.18h5.28Zm-34.26-4.36c-2.82,0-4.8-.92-5.72-3.08-.48-1.01-.66-2.11-.66-5.06V.53h-5.24v17.52c0,4.36.44,6.38,1.54,8.27,1.98,3.26,5.68,4.66,10.08,4.66s8.1-1.41,10.08-4.66c1.1-1.89,1.54-3.92,1.54-8.27V.53h-5.24v17.43c0,2.95-.18,4.05-.66,5.06-.92,2.16-2.9,3.08-5.72,3.08m-34-20.9h5.68c2.16,0,3.3.18,4.22.57,1.32.57,2.11,2.02,2.11,3.65s-.79,3.12-2.11,3.74c-.92.4-2.07.57-4.22.57h-5.68V5.19Zm5.41,13.29l6.95,11.97h6.29l-7.48-12.5c.7-.26,1.63-.62,2.33-1.06,2.42-1.63,3.96-4.05,3.96-7.35,0-3.65-1.63-6.12-4.27-7.66-2.29-1.32-4.97-1.36-7.52-1.36h-10.96v29.93h5.28v-11.97h5.41Zm-37.21-13.25h8.76v25.22h5.28V5.24h8.71V.53h-22.75v4.71Zm-6.68,16.24c-1.41,2.91-3.83,4.62-7.22,4.62-5.37,0-8.45-4.09-8.45-10.61s3.17-10.74,8.45-10.74c3.48,0,5.85,1.85,7.3,4.97l4.62-2.86c-1.5-2.6-4.97-6.86-11.93-6.86-8.76,0-14.26,6.34-14.26,15.49s5.06,15.49,14.26,15.49c7.35,0,10.87-4.62,12.23-7.39l-5.02-2.11Zm-24.93-16.24V.53h-20.95v29.93h22.05v-4.71h-16.77v-8.41h14.21v-4.71h-14.21v-7.39h15.67Zm-47.36,25.22h5.28v-11.66h4.71c3.7,0,7.17-.18,9.59-2.24,1.85-1.58,2.95-4.14,2.95-6.95s-1.1-5.24-2.95-6.82c-2.42-2.07-5.9-2.24-9.59-2.24h-9.99v29.93Zm5.28-25.26h5.46c2.11,0,3.3.18,4.18.57,1.32.62,2.16,2.16,2.16,3.83s-.84,3.21-2.16,3.87c-.88.4-2.07.57-4.18.57h-5.46V5.19Zm-10.39-.22c-1.76-1.94-5.41-4.97-11.62-4.97s-11.31,3.56-11.31,8.89,4.09,7.52,8.98,8.58l4.01.88c3.04.66,5.11,1.54,5.11,3.87s-2.07,4.05-6.07,4.05c-4.23,0-7.53-2.33-8.89-4.58l-4.4,3.17c2.07,2.9,6.51,6.12,13.03,6.12,7.48,0,12.01-3.7,12.01-9.24s-4.05-7.26-9.64-8.54l-3.61-.79c-3.39-.75-4.84-1.59-4.84-3.79s2.02-4.01,5.5-4.01,6.07,1.54,7.74,3.61l4.01-3.26Z"/>
      <path class="cls-1" d="m148.67,30.1c5.56,0,9.01,0,12.21-3.08,2.76-2.6,4.33-6.81,4.33-11.76,0-5.77-2.32-10.24-5.56-12.58-3.02-2.08-6.04-2.08-10.85-2.08h-8.31v29.51h8.18Zm-2.89-24.69h2.89c3.89,0,6.13.22,7.88,1.74,2.01,1.74,3.06,4.69,3.06,8.29s-1.27,6.73-2.67,8.16c-1.84,1.74-4.38,1.78-7.7,1.78h-3.46V5.41ZM116.45.59h-4.9v29.51h5.21v-9.85c0-4.95-.04-9.55-.09-10.93.04,0,.96,1.61,1.88,3.04l11.73,17.75h4.9V.59h-5.21v9.89c0,4.17.09,9.63.09,10.59-.39-.65-1.62-2.6-2.28-3.6L116.45.59Zm-31.88,14.75c0-6.42,3.15-10.63,8.36-10.63s8.36,4.21,8.36,10.63-3.06,10.54-8.36,10.54-8.36-4.12-8.36-10.54m-5.73,0c0,8.98,5.08,15.27,14.09,15.27s14.09-6.29,14.09-15.27S101.59.07,92.93.07s-14.09,6.25-14.09,15.27m-11.29,2.69L78.97.59h-6.04l-7.75,12.63L57.57.59h-6.08l10.81,17.44v12.06h5.25v-12.06Zm-19.71-12.8V.59h-20.83v29.51h21.92v-4.64h-16.67v-8.29h14.13v-4.64h-14.13v-7.29h15.58Zm-30.73,3.64c0,1.43-.61,2.52-1.62,3.17-1.14.69-2.89.65-4.2.65h-6.04v-7.59h6.04c2.1,0,2.98.13,3.81.52,1.14.52,2.01,1.74,2.01,3.25m-11.86,8.03h6.26c2.41,0,3.68.09,4.73.74,1.05.65,1.79,1.91,1.79,3.56s-.74,2.91-1.79,3.56c-1.01.56-2.14.74-4.73.74h-6.26v-8.59Zm7.09,13.19c3.85,0,5.43-.48,6.87-1.26,2.49-1.35,4.07-3.86,4.07-7.16,0-3.69-2.23-6.12-4.94-7.2,2.23-.95,3.94-3.21,3.94-6.2s-1.53-5.42-3.89-6.6c-1.4-.69-2.98-1.09-6.7-1.09H0v29.51h12.34Z"/>
    </g>
  </g>
</svg>