<?xml version="1.0" encoding="UTF-8"?>
<svg id="_レイヤー_2" data-name="レイヤー 2" xmlns="http://www.w3.org/2000/svg" viewBox="0 0 269.87 29.93">
  <defs>
    <style>
      .cls-1 {
        fill: #231815;
        stroke-width: 0px;
      }
    </style>
  </defs>
  <g id="_デザイン" data-name="デザイン">
    <g>
      <path class="cls-1" d="m258.21,29.93l5.24-18.26c.75-2.64,1.28-4.58,1.54-5.85h.09c-.18,2.51-.35,7.26-.35,11.44v12.67h5.15V0h-8.01l-4.49,16.5c-.66,2.51-1.41,5.1-1.67,6.29h-.09c-.22-1.32-.84-3.43-1.63-6.25l-4.75-16.55h-7.88v29.93h5.15v-12.67c0-5.59-.18-9.33-.26-10.74h.09s.48,2.16,1.36,5.24l5.24,18.18h5.28ZM219.62,0v29.93h18.17v-4.84h-12.85V0h-5.32Zm-12.71,18.44h-7.83l2.82-9.2c.48-1.41.84-2.64,1.1-3.74h.04c.31,1.14.62,2.42,1.1,3.83l2.77,9.11Zm-9.33,4.71h10.87l2.29,6.78h5.68L206.11,0h-5.98l-10.39,29.93h5.5l2.33-6.78Zm-10.48-18.44V0h-20.95v29.93h22.05v-4.71h-16.77v-8.41h14.21v-4.71h-14.21v-7.39h15.67Zm-43.57-.04h5.68c2.16,0,3.3.18,4.23.57,1.32.57,2.11,2.02,2.11,3.65s-.79,3.12-2.11,3.74c-.92.4-2.07.57-4.23.57h-5.68V4.67Zm5.41,13.29l6.95,11.97h6.29l-7.48-12.5c.7-.26,1.63-.62,2.33-1.06,2.42-1.63,3.96-4.05,3.96-7.35,0-3.65-1.63-6.12-4.27-7.66-2.29-1.32-4.97-1.36-7.52-1.36h-10.96v29.93h5.28v-11.97h5.41Zm-24.99-13.25V0h-20.95v29.93h22.05v-4.71h-16.77v-8.41h14.21v-4.71h-14.21v-7.39h15.67Zm-32.25,12.1l-.09,13.11h5.37V0h-5.28v12.1h-13.38V0h-5.28v29.93h5.28v-13.11h13.38ZM46.53,4.71h8.76v25.22h5.28V4.71h8.71V0h-22.75v4.71ZM16.23,0h-4.93v29.93h5.24v-9.99c0-5.02-.04-9.68-.09-11.09.04,0,.97,1.63,1.89,3.08l11.79,18h4.93V0h-5.24v10.03c0,4.22.09,9.77.09,10.74-.4-.66-1.63-2.64-2.29-3.65L16.23,0Z"/>
      <rect class="cls-1" width="5.28" height="29.93"/>
    </g>
  </g>
</svg>